<?xml version="1.0" encoding="UTF-8"?>
<svg width="48px" height="48px" viewBox="0 0 48 48" version="1.1" xmlns="http://www.w3.org/2000/svg" xmlns:xlink="http://www.w3.org/1999/xlink">
    <title>ic_flight</title>
    <defs>
        <linearGradient x1="22.5298738%" y1="27.0080042%" x2="66.3682491%" y2="88.9058327%" id="linearGradient-1">
            <stop stop-color="#24ADFB" offset="0%"></stop>
            <stop stop-color="#0066FE" offset="100%"></stop>
        </linearGradient>
        <linearGradient x1="23.3189408%" y1="42.5920272%" x2="94.0289209%" y2="87.045931%" id="linearGradient-2">
            <stop stop-color="#FFCA6D" offset="0%"></stop>
            <stop stop-color="#F6A923" offset="100%"></stop>
        </linearGradient>
    </defs>
    <g id="icons" stroke="none" stroke-width="1" fill="none" fill-rule="evenodd">
        <g id="Group-7" transform="translate(6.000000, 6.994980)" fill-rule="nonzero">
            <path d="M36.3467672,-1.77635684e-15 C36.7618177,-1.77635684e-15 37.0876315,0.0809836848 37.341008,0.248866739 C37.3565744,0.257383285 37.4284979,0.299507041 37.5085386,0.37834884 C37.5890417,0.45397781 37.6346618,0.53072872 37.6513069,0.560052157 C37.8096416,0.79984138 37.8928674,1.12173623 37.89446,1.53364128 C37.8907097,2.8056155 37.1182504,4.58603263 35.8276844,6.30086726 C34.7852033,7.68421954 33.31863,9.06548094 31.2875593,10.978644 C31.0531226,11.1978303 30.8115621,11.4260375 30.5617209,11.6624496 L30.1806039,12.0231193 L31.3026119,15.7405663 C31.4625905,15.5791089 31.6794915,15.4890477 31.9033279,15.4890477 C32.0890021,15.4890477 32.2705378,15.5508465 32.416302,15.6624325 L32.4992149,15.7352625 L33.1767351,16.4078147 C33.334556,16.5639684 33.4210184,16.7722923 33.4210184,16.9944874 C33.4210184,17.1783326 33.3594766,17.357751 33.2488798,17.5021973 L33.1767351,17.584424 L32.1637427,18.5899884 L32.3232076,19.1196972 C32.4665924,19.0072482 32.6501517,18.9448785 32.8380263,18.9448785 C33.0227586,18.9448785 33.2030671,19.0062877 33.3481213,19.1165044 L33.4306767,19.1883905 L34.1113821,19.8635436 C34.2686379,20.0218391 34.3551003,20.2296531 34.3551003,20.4508283 C34.3551003,20.634206 34.2935585,20.813511 34.1826347,20.9573423 L34.1102519,21.0391329 L33.1821293,21.9620817 L34.3228888,25.7434793 C34.3465208,25.8260948 34.3593643,25.9140142 34.3593643,26.0045853 C34.3571381,26.2292709 34.2885539,26.4380906 34.1644631,26.6065787 L34.0834346,26.7026361 L32.7349701,28.0402439 C32.583571,28.1915528 32.386038,28.2730975 32.1782815,28.2730975 C31.923672,28.2730975 31.6908531,28.1519024 31.5452851,27.9498944 L31.4884316,27.8584896 L27.023107,19.9232104 C27.00415,19.8880605 26.9508046,19.8159918 26.9096901,19.7673308 L26.8743793,19.7287067 L24.5896238,17.4585627 C22.3441181,19.5752049 20.1645765,21.4654192 18.2663589,22.9393937 L18.0047561,23.1398895 L18.0047561,23.1398895 L17.7483549,23.3331947 L18.3125441,29.5056508 C18.313623,29.520593 18.3152155,29.5478255 18.3152155,29.5829627 C18.3116622,29.8232024 18.2335095,30.0530655 18.0979119,30.2377276 L18.0097972,30.3428222 L17.3704479,30.9796252 C17.2506437,31.0989589 17.101281,31.1750142 16.9413246,31.200663 L16.8196673,31.2103369 C16.5566517,31.2103369 16.3154268,31.0736802 16.1747031,30.854961 L16.1207755,30.7563591 L14.0550787,26.4393882 C14.0417857,26.4110082 14.000115,26.3505573 13.9681033,26.3095196 L13.9407202,26.2768598 L13.5735503,25.9128922 C13.2535931,26.0247803 12.9798211,26.0807243 12.7425246,26.0844471 C12.459997,26.0844471 12.224008,26.010449 12.0328752,25.8647972 L11.941039,25.786011 L11.9367749,25.7828492 L11.9212086,25.7694879 C11.7209528,25.5707005 11.6162526,25.2946522 11.6173315,24.9722983 C11.6199207,24.7795694 11.6571977,24.5653971 11.7300041,24.3253688 L11.7912838,24.1404307 L11.4294568,23.7839087 C11.4056835,23.7603479 11.3447764,23.715789 11.2999654,23.6871079 L11.2624913,23.665085 L6.90402465,21.6102515 C6.63076639,21.4892859 6.44879971,21.2132886 6.45353503,20.9148525 C6.45188393,20.7583929 6.50721846,20.5975271 6.60830246,20.4627523 L6.69251793,20.3670397 L7.31686604,19.7478307 C7.52297849,19.5501653 7.80050079,19.4387362 8.08449621,19.4328715 L8.14276074,19.4346883 L8.14276074,19.4346883 L8.19135412,19.4392972 L14.3868519,19.9977684 C14.5156979,19.8288144 14.6467016,19.6583305 14.7852059,19.4835118 C16.153809,17.7466542 17.8801794,15.7699778 19.8173162,13.7195812 L20.3059063,13.2055423 L18.0227948,10.9396821 C17.9913924,10.90851 17.919822,10.8539301 17.8694627,10.8193803 L17.828447,10.7931159 L9.82006376,6.35201753 C9.56560838,6.21667074 9.40670862,5.95342277 9.41153778,5.66834796 C9.4102226,5.51360181 9.46457218,5.35203426 9.56417032,5.21638801 L9.64719028,5.12002518 L10.9860479,3.79047502 C11.1690934,3.61035262 11.4197985,3.51070393 11.6903339,3.5074911 C11.7547569,3.5074911 11.8163258,3.51340679 11.8754972,3.52476974 L11.9625133,3.54584106 L15.7707645,4.67823572 L16.6994522,3.75686781 C16.8551153,3.59969419 17.0650295,3.51279482 17.2894311,3.51279482 C17.4772886,3.51279482 17.6577255,3.57423946 17.8024384,3.68414333 L17.8847529,3.75579687 L18.5643794,4.43043992 C18.722714,4.5865936 18.8107691,4.79705939 18.8086114,5.02302835 C18.8103375,5.16626951 18.7698137,5.31120787 18.6944312,5.43794713 L18.6314738,5.52927837 L19.1672532,5.68808391 L20.1791667,4.68302946 C20.3364739,4.52529487 20.5469017,4.43895647 20.7723822,4.43895647 C20.9584416,4.43895647 21.139328,4.50110941 21.2848651,4.61219377 L21.367704,4.68461038 L22.0440939,5.35711154 C22.2003222,5.51163331 22.2910487,5.72638287 22.288891,5.949139 C22.2906891,6.12499463 22.229447,6.30343554 22.1189002,6.44839767 L22.0467654,6.53106899 L22.0355145,6.54172742 L25.7809353,7.65601805 C26.1459989,7.27766921 26.4911807,6.91686343 26.8192037,6.57370272 C28.7528693,4.55033453 30.1497281,3.08916039 31.5464842,2.05162068 C33.2744998,0.768427054 35.0685823,0.00214188587 36.3467672,-1.77635684e-15 Z M31.0277853,4.11176727 L30.9660507,4.16144168 L26.0875832,9.10607442 L21.9281536,7.91329058 L21.867323,7.90159871 C21.7053977,7.88540339 21.5500544,7.98670748 21.503609,8.14876189 C21.4578894,8.3082842 21.5328404,8.47381633 21.6743647,8.54771962 L21.7389361,8.57349787 L26.0948387,9.82285962 L26.1557302,9.8345063 C26.2322192,9.84206147 26.3090054,9.82364521 26.3736295,9.78252587 L26.433738,9.73395989 L31.454632,4.64384951 L31.4940347,4.5960274 C31.5858242,4.46157958 31.5713713,4.27663076 31.4514442,4.15821899 C31.3358002,4.04403621 31.1596174,4.02878443 31.0277853,4.11176727 Z M17.511139,6.58480456 C17.3720531,6.59179657 17.245506,6.68368886 17.2010449,6.82433415 C17.1510261,6.98256011 17.2214708,7.15006174 17.3609434,7.22777091 L17.4247937,7.25528851 L20.1394558,8.11412583 L20.1999477,8.12746088 C20.3613752,8.14803563 20.5194022,8.05097554 20.570215,7.89023807 C20.6202338,7.73201212 20.5497891,7.56451048 20.4103164,7.48680131 L20.3464662,7.45928371 L17.631804,6.60044639 L17.5713121,6.58711134 L17.511139,6.58480456 Z M33.7692389,1.63283517 C33.5288799,1.60872339 33.3144802,1.78412293 33.2903637,2.02460101 C33.2662472,2.26507909 33.4415463,2.47957155 33.6819052,2.50368334 C34.3011718,2.56580552 34.7317729,2.72557091 34.9832225,2.96411109 C35.2422738,3.20986268 35.3922759,3.50395501 35.4406166,3.86171647 C35.4729783,4.10121954 35.6932751,4.26911468 35.9326634,4.23672076 C36.1720516,4.20432685 36.3398799,3.98391079 36.3075182,3.74440772 C36.2325069,3.18926167 35.9892557,2.71234619 35.5851525,2.32898967 C35.1734476,1.93842174 34.5649717,1.71265971 33.7692389,1.63283517 Z" id="Combined-Shape" fill="url(#linearGradient-1)"></path>
            <line x1="4.03980528" y1="30.6144279" x2="13.6624392" y2="30.6144279" id="Line" stroke="#FFCE2F" stroke-width="0.874906139" stroke-linecap="round" stroke-linejoin="round"></line>
            <line x1="4.03980528" y1="28.3349556" x2="9.06981848" y2="28.3349556" id="Line-Copy" stroke="#FFCE2F" stroke-width="0.874906139" stroke-linecap="round" stroke-linejoin="round"></line>
            <path d="M22.6533792,23.5472186 L22.6533792,31.4867454 C22.6533792,32.3342451 22.325222,33.1042693 21.7892662,33.6770379 C21.2445299,34.2591901 20.4849194,34.6373655 19.636432,34.6862199 L19.636432,34.6862199 L2.51703156,34.6915778 C1.66977795,34.6915778 0.899952612,34.3632362 0.327341506,33.8268986 C-0.254368207,33.2820388 -0.632327545,32.522291 -0.681193882,31.6736089 L-0.681193882,31.6736089 L-0.687270877,23.5470128 L10.5090751,27.2776456 L22.6533792,23.5472186 Z M12.8139789,15.0037402 C13.5081152,15.0037402 14.1375976,15.2858483 14.5934373,15.741913 C15.0491543,16.197855 15.3311056,16.8274624 15.3311054,17.522181 L15.3311054,17.522181 L19.4497894,17.7509484 C20.3351839,17.7509484 21.1360469,18.1094778 21.7156069,18.689324 C22.2950444,19.2690475 22.6533792,20.0701205 22.6533792,20.9557808 L22.6533792,20.9557808 L22.6533792,23.5475823 L11.2073458,27.3648103 L-0.68655829,23.553771 L-0.68655829,20.9557808 C-0.68655829,20.0701205 -0.328223507,19.2690475 0.251213976,18.689324 C0.830774002,18.1094778 1.63163702,17.7509484 2.51700182,17.7509484 L2.51700182,17.7509484 L6.6356469,17.7507699 C6.63571535,16.8274624 6.91766664,16.197855 7.37338361,15.741913 C7.8292233,15.2858483 8.45870573,15.0037402 9.15284205,15.0037402 L9.15284205,15.0037402 Z" id="Combined-Shape" stroke="#E9EEF8" stroke-width="1.37311658" fill="url(#linearGradient-2)"></path>
        </g>
    </g>
</svg>