<?xml version="1.0" encoding="UTF-8"?>
<svg width="64px" height="64px" viewBox="0 0 64 64" version="1.1" xmlns="http://www.w3.org/2000/svg" xmlns:xlink="http://www.w3.org/1999/xlink">
    <title>ecomerce</title>
    <defs>
        <linearGradient x1="22.5298738%" y1="42.5106125%" x2="66.3682491%" y2="62.6731432%" id="linearGradient-1">
            <stop stop-color="#24ADFB" offset="0%"></stop>
            <stop stop-color="#0066FE" offset="100%"></stop>
        </linearGradient>
        <linearGradient x1="22.5298738%" y1="49.4149805%" x2="66.3682491%" y2="50.9899389%" id="linearGradient-2">
            <stop stop-color="#24ADFB" offset="0%"></stop>
            <stop stop-color="#0066FE" offset="100%"></stop>
        </linearGradient>
        <linearGradient x1="23.3368096%" y1="39.3430438%" x2="93.999434%" y2="103.293509%" id="linearGradient-3">
            <stop stop-color="#FFCA6D" offset="0%"></stop>
            <stop stop-color="#F6A923" offset="100%"></stop>
        </linearGradient>
        <linearGradient x1="23.3189408%" y1="41.5244429%" x2="94.0289209%" y2="92.3847265%" id="linearGradient-4">
            <stop stop-color="#FFCA6D" offset="0%"></stop>
            <stop stop-color="#F6A923" offset="100%"></stop>
        </linearGradient>
        <linearGradient x1="22.5298738%" y1="43.422971%" x2="66.3682491%" y2="61.1292988%" id="linearGradient-5">
            <stop stop-color="#24ADFB" offset="0%"></stop>
            <stop stop-color="#0066FE" offset="100%"></stop>
        </linearGradient>
        <linearGradient x1="22.5298738%" y1="32.0925361%" x2="66.3682491%" y2="80.3020582%" id="linearGradient-6">
            <stop stop-color="#24ADFB" offset="0%"></stop>
            <stop stop-color="#0066FE" offset="100%"></stop>
        </linearGradient>
        <linearGradient x1="23.3189408%" y1="45.0952632%" x2="94.0289209%" y2="74.527701%" id="linearGradient-7">
            <stop stop-color="#FFCA6D" offset="0%"></stop>
            <stop stop-color="#F6A923" offset="100%"></stop>
        </linearGradient>
        <linearGradient x1="24.7323943%" y1="39.3430438%" x2="91.6964486%" y2="103.293509%" id="linearGradient-8">
            <stop stop-color="#FFCA6D" offset="0%"></stop>
            <stop stop-color="#F6A923" offset="100%"></stop>
        </linearGradient>
    </defs>
    <g id="Page-1" stroke="none" stroke-width="1" fill="none" fill-rule="evenodd">
        <circle id="Oval" fill="#E9EEF8" cx="32" cy="32" r="32"></circle>
        <g id="Group-2" transform="translate(10.000000, 13.000000)" fill-rule="nonzero">
            <g id="Group">
                <g id="shopping-bag-(1)" transform="translate(13.294621, 0.000000)">
                    <path d="M17.608877,4.16012624 C17.2836767,1.78859516 15.2996976,0 12.9942137,0 C11.5115316,0 10.1034014,0.744426046 9.22789911,1.99204598 C9.04907107,2.24648489 9.10257488,2.60340149 9.34711781,2.7894662 C9.59085738,2.97486223 9.93469566,2.91986196 10.1132024,2.66508871 C10.7833657,1.71102641 11.8601901,1.14129724 12.994053,1.14129724 C14.7572686,1.14129724 16.2741739,2.50844663 16.5228943,4.32111485 C16.5620983,4.60581226 16.7968402,4.81126917 17.0653233,4.81126917 C17.0908702,4.81126917 17.1172204,4.80926308 17.1434099,4.80558525 C17.4432241,4.76094978 17.6516158,4.47190585 17.608877,4.16012624 Z" id="Shape" fill="url(#linearGradient-1)"></path>
                    <path d="M25.5298507,10.5480139 L23.8845684,7.69485436 C23.7855944,7.52283227 23.6070877,7.41784696 23.4142812,7.41784696 L21.8376059,7.41784696 C21.5348997,7.41784696 21.289232,7.67345608 21.289232,7.988412 C21.289232,8.30336791 21.5348997,8.55897703 21.8376059,8.55897703 L23.1038627,8.55897703 L24.091032,10.2708393 L1.89723472,10.2708393 L2.88440408,8.55897703 L3.46523371,8.55897703 C3.76793994,8.55897703 4.01360757,8.30336791 4.01360757,7.988412 C4.01360757,7.67345608 3.76793994,7.41784696 3.46523371,7.41784696 L2.57398559,7.41784696 C2.38117908,7.41784696 2.20267238,7.52283227 2.10369837,7.69485436 L0.4584161,10.5480139 C0.356710663,10.7245497 0.354300581,10.9440492 0.4515072,11.1229254 C0.548713818,11.3018017 0.730915975,11.4124709 0.928703325,11.4124709 L25.0595634,11.4124709 C25.2573508,11.4124709 25.4393923,11.3018017 25.5367596,11.1229254 C25.6341269,10.9440492 25.6315561,10.7242153 25.5298507,10.5480139 Z" id="Shape" fill="url(#linearGradient-2)"></path>
                    <path d="M22.7961756,5.28654499 C22.7193744,5.1576538 22.5967816,5.0662096 22.4550688,5.03177174 L14.9788355,3.21241655 C14.8372833,3.17781152 14.6881796,3.20355633 14.5644621,3.28313117 C14.4410659,3.36304037 14.3530176,3.49059417 14.3199192,3.63804168 L13.7561208,6.14565244 C13.6870318,6.45241682 13.870198,6.75934838 14.165192,6.83089887 C14.4600253,6.90278371 14.7553406,6.7122053 14.8241082,6.40527374 C15.2542211,9.76954785 15.8325335,11.705912 16.5590455,12.2143661 C17.1303356,12.6141872 18.4987263,12.0402358 20.6642176,10.4925121 C20.5951286,10.7992765 20.7782948,11.106208 21.0732887,11.1777585 C21.1155455,11.1879561 21.1574809,11.1928042 21.1989343,11.1928042 C21.4479761,11.1928042 21.673399,11.0152654 21.7320443,10.7523006 L22.8639792,5.71735252 C22.897399,5.57007218 22.8729769,5.41493466 22.7961756,5.28654499 Z" id="Shape" fill="url(#linearGradient-3)"></path>
                    <path d="M13.2842269,6.63547241 L12.7845366,2.23795901 C12.7675054,2.08766954 12.6937569,1.95041965 12.5793584,1.85680218 C12.4649598,1.76318471 12.3205156,1.72038815 12.1754287,1.7381086 L3.00265874,2.86619909 C2.70204125,2.90331173 2.48706199,3.18683892 2.52257052,3.49995592 L3.35565534,10.834383 C3.38875379,11.1247644 3.62542379,11.3382456 3.89969106,11.3382456 C3.92106045,11.3382456 3.94307252,11.336741 3.96492393,11.3342334 C4.26538075,11.2971208 4.48036001,11.0135936 4.44501215,10.7004766 C7.11748502,11.1711728 8.67654142,11.2934863 9.12218137,11.0674173 C10.3987321,10.4198348 11.4229616,8.98704383 12.19487,6.76904447 C12.2305392,7.08199429 12.5017537,7.30433578 12.803978,7.26889488 C13.1045955,7.23211659 13.3195747,6.94842223 13.2842269,6.63547241 Z" id="Shape" fill="url(#linearGradient-4)"></path>
                    <path d="M17.6215701,10.6249139 L16.5330166,5.91495225 C16.4989542,5.76800626 16.4101025,5.64078681 16.2862243,5.56171348 C16.1623461,5.48330885 16.0137244,5.45873427 15.8715296,5.49384082 L7.03665306,7.70455046 C6.74214111,7.77810704 6.56090299,8.08637599 6.63159871,8.39280602 L7.17563443,10.746951 C7.24633015,11.0537154 7.5426095,11.2424549 7.83696078,11.1683968 C8.13147273,11.0948402 8.31271085,10.7865713 8.24201513,10.4801412 L16.554868,10.8920581 C16.6151201,11.1536855 16.840061,11.3292182 17.0876567,11.3292182 C17.1302348,11.3292182 17.1732949,11.3240358 17.2165157,11.3131695 C17.5110277,11.2394458 17.6922658,10.931344 17.6215701,10.6249139 Z" id="Shape" fill="url(#linearGradient-5)"></path>
                    <path d="M25.0598848,10.2713408 C25.3519867,10.2713408 25.5926735,10.5093967 25.6077766,10.8126504 L26.704685,33.06686 C26.7122366,33.2231677 26.6579295,33.3757976 26.5546173,33.4891416 C26.4505018,33.6024856 26.3067003,33.6666805 26.1564718,33.6666805 L10.833,33.6663408 L13.5302448,22.7929084 C15.849154,22.5154558 17.6557932,20.4604213 17.6557932,17.9745539 L17.6556845,15.8796322 C18.294209,15.6442014 18.7527016,15.0095686 18.7527016,14.2654632 C18.7527016,13.3214314 18.0147347,12.553601 17.1074194,12.553601 C16.2001041,12.553601 15.4621371,13.3214314 15.4621371,14.2654632 C15.4621371,15.0095686 15.9206298,15.6442014 16.5591542,15.8796322 L16.5590455,17.9743867 C16.5590455,19.7201436 15.3936903,21.1882637 13.8298024,21.5805814 L13.8483988,21.5033949 C13.8794108,21.3782747 13.9002005,21.2509495 13.9106146,21.1226767 L13.9184348,20.9297138 C13.9184348,19.6676124 12.9379301,18.6345201 11.6971039,18.5506203 L11.5338399,18.5451189 L9.47154918,18.5453549 C9.44378903,18.3591988 9.42938192,18.1685104 9.42938192,17.9743867 L9.42929756,15.8796233 C10.0678093,15.6441852 10.5262903,15.0095591 10.5262903,14.2654632 C10.5262903,13.3214314 9.78832338,12.553601 8.88100806,12.553601 C7.97369273,12.553601 7.23572579,13.3214314 7.23572579,14.2654632 C7.23572579,15.0095591 7.69420682,15.6441852 8.33271855,15.8796233 L8.33263419,17.9745539 C8.33263419,18.1675023 8.34351843,18.3578551 8.36468162,18.5449826 L0,18.5443408 L0.381132821,10.8126504 C0.396235998,10.5092295 0.636922799,10.2713408 0.92902467,10.2713408 L25.0598848,10.2713408 Z M17.1074194,13.6950654 C17.4098043,13.6950654 17.6557932,13.9510088 17.6557932,14.2656304 C17.6557932,14.3696653 17.6288967,14.4672843 17.5819584,14.5513552 C17.4870884,14.3800528 17.3100308,14.2654632 17.1074194,14.2654632 L17.0651626,14.2654632 C16.8778884,14.2654632 16.7124455,14.3632972 16.6135003,14.5124915 C16.5785542,14.4382362 16.5590455,14.3542616 16.5590455,14.2656304 C16.5590455,13.9510088 16.8050345,13.6950654 17.1074194,13.6950654 Z M8.88100806,13.6950654 C9.18339294,13.6950654 9.42938192,13.9510088 9.42938192,14.2656304 C9.42938192,14.3696653 9.40248538,14.4672843 9.35554707,14.5513552 C9.2606771,14.3801451 9.08361943,14.2656304 8.88100806,14.2656304 C8.67839669,14.2656304 8.50133901,14.3801451 8.40639849,14.5503221 C8.35953074,14.4672843 8.33263419,14.3696653 8.33263419,14.2656304 C8.33263419,13.9510088 8.57862317,13.6950654 8.88100806,13.6950654 Z" id="Combined-Shape" fill="url(#linearGradient-6)"></path>
                </g>
                <g id="Group-132" transform="translate(0.000000, 14.173374)">
                    <path d="M4.09540056,0 C5.18372841,0 5.31172348,1.39876525 5.36936681,1.64501626 L6.37240057,5.92995482 L24.1936224,5.92994242 C24.3200807,5.92994242 24.4460376,5.94627649 24.5685311,5.97856054 C25.375828,6.19132942 25.862419,7.03631158 25.6553626,7.86588103 L23.557306,16.2717252 C23.3861233,16.9575669 22.7845967,17.4371596 22.0955657,17.4371596 L7.96589784,17.4371596 C7.26841915,17.4371596 6.66181437,16.9459787 6.49869437,16.2491336 L3.23838312,2.32115452 L0.533268931,2.32115452 C0.238752633,2.32115452 0,2.07581491 0,1.77317318 C0,1.47053144 0.238752633,0 0.533268931,0 L4.09540056,0 Z M18.1835539,13.5534685 L9.57574394,13.5534685 C9.22713281,13.5534685 8.94452765,13.8655672 8.94452765,14.2505604 C8.94452765,14.6355536 9.22713281,14.9476523 9.57574394,14.9476523 L9.57574394,14.9476523 L18.1835539,14.9476523 C18.5321651,14.9476523 18.8147702,14.6355536 18.8147702,14.2505604 C18.8147702,13.8655672 18.5321651,13.5534685 18.1835539,13.5534685 L18.1835539,13.5534685 Z M14.5592129,10.242622 L9.57574394,10.242622 C9.22713281,10.242622 8.94452765,10.5547207 8.94452765,10.9397139 C8.94452765,11.3247071 9.22713281,11.6368058 9.57574394,11.6368058 L9.57574394,11.6368058 L14.5592129,11.6368058 C14.907824,11.6368058 15.1904292,11.3247071 15.1904292,10.9397139 C15.1904292,10.5547207 14.907824,10.242622 14.5592129,10.242622 L14.5592129,10.242622 Z" id="Combined-Shape" fill="url(#linearGradient-7)"></path>
                    <ellipse id="Oval-19" fill="url(#linearGradient-8)" cx="10.3878306" cy="21.2321024" rx="2.52486514" ry="2.59452389"></ellipse>
                    <ellipse id="Oval-19-Copy" fill="url(#linearGradient-8)" cx="19.2248586" cy="21.2321024" rx="2.52486514" ry="2.59452389"></ellipse>
                </g>
            </g>
        </g>
    </g>
</svg>