<?xml version="1.0" encoding="UTF-8"?>
<svg width="48px" height="48px" viewBox="0 0 48 48" version="1.1" xmlns="http://www.w3.org/2000/svg" xmlns:xlink="http://www.w3.org/1999/xlink">
    <title>ic_bus</title>
    <defs>
        <linearGradient x1="22.5298738%" y1="26.6668765%" x2="66.3682491%" y2="89.4830709%" id="linearGradient-1">
            <stop stop-color="#24ADFB" offset="0%"></stop>
            <stop stop-color="#0066FE" offset="100%"></stop>
        </linearGradient>
        <linearGradient x1="23.3189408%" y1="39.3430438%" x2="94.0289209%" y2="103.293509%" id="linearGradient-2">
            <stop stop-color="#FFCA6D" offset="0%"></stop>
            <stop stop-color="#F6A923" offset="100%"></stop>
        </linearGradient>
    </defs>
    <g id="icons" stroke="none" stroke-width="1" fill="none" fill-rule="evenodd">
        <g id="Group-15" transform="translate(4.000000, 7.000000)">
            <path d="M24.6666667,0 C33.1350328,0 40,6.86496717 40,15.3333333 C40,23.8016995 33.1350328,30.6666667 24.6666667,30.6666667 C16.1983005,30.6666667 9.33333333,23.8016995 9.33333333,15.3333333 C9.33333333,6.86496717 16.1983005,0 24.6666667,0 Z M29.9981333,19.0376 C28.9296,20.5634667 27.2672,21.5536 25.4501333,21.7912 L25.4501333,20.1133333 L20.4602667,22.9938667 L25.4498667,25.8744 L25.4498667,24.1066667 C28.0234667,23.8594667 30.3877333,22.5077333 31.8898667,20.3632 L29.9981333,19.0376 Z M16.8805333,11.1248 L14,16.116 L15.7674667,16.116 C16.0133333,18.6925333 17.3666667,21.0592 19.5144,22.5632 L20.8378667,20.6672 C19.3106667,19.5981333 18.32,17.9373333 18.0826667,16.116 L19.7624,16.116 L16.8805333,11.1248 Z M29.6944,7.98266667 L28.3688,9.87653333 C29.896,10.9466667 30.8874667,12.6085333 31.1250667,14.4277333 L29.4472,14.4277333 L32.3277333,19.4186667 L35.2096,14.4277333 L33.4421333,14.4277333 C33.1933333,11.8530667 31.8402667,9.48906667 29.6944,7.98266667 Z M23.7634667,4.6688 L23.7634667,6.436 C21.1861333,6.68186667 18.8192,8.03493333 17.3176,10.1829333 L17.3176,10.1829333 L19.212,11.508 C20.2794667,9.9808 21.9397333,8.9888 23.7618667,8.75253333 L23.7618667,8.75253333 L23.7618667,10.4296 L28.7528,7.54933333 L23.7634667,4.6688 Z" id="Combined-Shape" fill="url(#linearGradient-1)" fill-rule="nonzero"></path>
            <g id="circle-of-four-arrows" transform="translate(14.000000, 4.666667)"></g>
            <path d="M17.3333333,12 C18.0926995,12 18.7844664,12.2941939 19.3005853,12.774729 C19.7784806,13.2196759 20.1053361,13.8243674 20.196423,14.5024271 L20.2165912,14.7079596 L20.2215719,18.4441281 C20.6294408,18.6144494 20.9902431,18.8756015 21.2783312,19.2024334 C21.6420622,19.6150811 21.8898461,20.1320357 21.9710425,20.7017712 L21.9935835,20.9177955 L22,22 C22,22.5165732 21.8033047,22.9881863 21.4806169,23.3435674 C21.3205626,23.5198376 21.1295066,23.6673703 20.9162014,23.7776392 L20.7521875,23.8532207 L20.2220511,30.0303873 C20.2150149,30.7098856 19.972268,31.3341437 19.571667,31.824837 C19.2662119,32.1989867 18.8688363,32.4951344 18.4144505,32.6790551 C18.3544768,33.158523 18.2089403,33.5360675 18.017706,33.8242921 C17.7057332,34.2944917 17.2667418,34.5591601 16.770221,34.6402114 L16.6026787,34.660458 L14.6666667,34.6666667 C14.1500934,34.6666667 13.6784803,34.4699714 13.3230993,34.1472835 C13.1446513,33.9852518 12.9956552,33.7914476 12.8849575,33.5749518 L12.8092533,33.4084672 L8.5947744,32.9561095 C8.52067025,33.3126116 8.39306385,33.605189 8.2339702,33.8393421 C7.92294708,34.297104 7.48603509,34.559728 6.99168643,34.6403185 L6.82487016,34.660458 L4.88883333,34.6666667 C4.3722601,34.6666667 3.90064698,34.4699714 3.54526597,34.1472835 C3.2556488,33.8843096 3.04360968,33.5376451 2.94677241,33.1461412 C1.97118682,32.2944877 1.28209713,31.4120755 1.13895574,30.399677 L1.11673349,30.1807087 L1.11090217,23.94159 C0.723644223,23.8699535 0.408890341,23.7363167 0.160089183,23.5670964 C-0.296967788,23.2562324 -0.559442609,22.8197463 -0.640178269,22.3258767 L-0.660376693,22.1592218 L-0.666666667,21.111125 C-0.666666667,20.4198798 -0.42271137,19.784334 -0.0161850787,19.2863434 C0.239839786,18.9727155 0.560447484,18.7138913 0.925090201,18.5300413 L1.11098602,18.4444576 L1.111125,14.888875 C1.111125,14.1298239 1.40523371,13.4378676 1.88591024,12.9215706 C2.33075521,12.4437604 2.93534676,12.1168259 3.61367167,12.0257604 L3.81929513,12.0056018 L17.3333333,12 Z M5.77779167,27.5555417 C5.59401042,27.5555417 5.42751873,27.6306132 5.30685765,27.7512743 C5.18619657,27.8719354 5.111125,28.0384271 5.111125,28.2222083 C5.111125,28.4059896 5.18619657,28.5724813 5.30685765,28.6931424 C5.42751873,28.8138034 5.59401042,28.888875 5.77779167,28.888875 C5.96156578,28.888875 6.12805692,28.8137955 6.24872033,28.6931321 C6.36937968,28.5724727 6.44445833,28.4059863 6.44445833,28.2222083 C6.44445833,28.0384271 6.36938677,27.8719354 6.24872569,27.7512743 C6.12806461,27.6306132 5.96157292,27.5555417 5.77779167,27.5555417 Z M15.5555417,27.5555417 C15.3717604,27.5555417 15.2052687,27.6306132 15.0846076,27.7512743 C14.9639466,27.8719354 14.888875,28.0384271 14.888875,28.2222083 C14.888875,28.4059896 14.9639466,28.5724813 15.0846076,28.6931424 C15.2052687,28.8138034 15.3717604,28.888875 15.5555417,28.888875 C15.7393229,28.888875 15.9058146,28.8138034 16.0264757,28.6931424 C16.1471368,28.5724813 16.2222083,28.4059896 16.2222083,28.2222083 C16.2222083,28.0384271 16.1471368,27.8719354 16.0264757,27.7512743 C15.9058146,27.6306132 15.7393229,27.5555417 15.5555417,27.5555417 Z M16.4444167,18.6666667 L4.45058038,18.8468208 L4.38035319,18.92924 C4.29463784,19.0472799 4.24086944,19.1968964 4.22220833,19.3659257 L4.22220833,19.3659257 L4.40236248,24.2160863 L4.4847817,24.2863135 C4.60282156,24.3720288 4.75243806,24.4257972 4.92146735,24.4444583 L4.92146735,24.4444583 L16.882753,24.2643042 L16.9529801,24.181885 C17.0386955,24.0638451 17.0924639,23.9142286 17.111125,23.7451993 L17.111125,23.7451993 L17.111125,19.3333333 L17.1023515,19.2253703 C17.0792703,19.0847951 17.0119142,18.9589389 16.9153845,18.8624123 C16.7947128,18.7417443 16.6282078,18.6666667 16.4444167,18.6666667 L16.4444167,18.6666667 Z M15.5555833,15.111125 L5.77779167,15.111125 L5.66982599,15.1198977 C5.52924696,15.1429772 5.40338651,15.2103288 5.30685765,15.3068576 C5.18619657,15.4275187 5.111125,15.5940104 5.29127915,16.2160863 C5.41814328,16.3429504 5.5990974,16.4211319 5.81038402,16.4444583 L5.81038402,16.4444583 L15.5555833,16.4444583 L15.663549,16.4356856 C15.804128,16.4126061 15.9299885,16.3452546 16.0265174,16.2487257 C16.1471784,16.1280646 16.22225,15.9615729 16.22225,15.7777917 C16.22225,15.5940104 16.1471784,15.4275187 16.0265174,15.3068576 C15.9058563,15.1861966 15.7393646,15.111125 15.5555833,15.111125 L15.5555833,15.111125 Z" id="Combined-Shape" stroke="#E9EEF8" stroke-width="1.33333333" fill="url(#linearGradient-2)" fill-rule="nonzero"></path>
            <rect id="Rectangle" fill="#FFCA6D" x="4.66666667" y="18.6666667" width="12" height="5.33333333" rx="1"></rect>
        </g>
    </g>
</svg>