<?xml version="1.0" encoding="UTF-8"?>
<svg width="48px" height="48px" viewBox="0 0 48 48" version="1.1" xmlns="http://www.w3.org/2000/svg" xmlns:xlink="http://www.w3.org/1999/xlink">
    <title>ic_food</title>
    <defs>
        <linearGradient x1="22.5298738%" y1="41.7444409%" x2="66.3682491%" y2="63.969618%" id="linearGradient-1">
            <stop stop-color="#24ADFB" offset="0%"></stop>
            <stop stop-color="#0066FE" offset="100%"></stop>
        </linearGradient>
        <linearGradient x1="22.5298738%" y1="33.6582488%" x2="66.3682491%" y2="77.6526424%" id="linearGradient-2">
            <stop stop-color="#24ADFB" offset="0%"></stop>
            <stop stop-color="#0066FE" offset="100%"></stop>
        </linearGradient>
        <linearGradient x1="22.5298738%" y1="38.3757624%" x2="66.3682491%" y2="69.6699167%" id="linearGradient-3">
            <stop stop-color="#24ADFB" offset="0%"></stop>
            <stop stop-color="#0066FE" offset="100%"></stop>
        </linearGradient>
        <linearGradient x1="23.3189408%" y1="49.9173547%" x2="94.0289209%" y2="50.4132942%" id="linearGradient-4">
            <stop stop-color="#FFCA6D" offset="0%"></stop>
            <stop stop-color="#F6A923" offset="100%"></stop>
        </linearGradient>
        <linearGradient x1="23.3189408%" y1="47.7763815%" x2="94.0289209%" y2="61.1199135%" id="linearGradient-5">
            <stop stop-color="#FFCA6D" offset="0%"></stop>
            <stop stop-color="#F6A923" offset="100%"></stop>
        </linearGradient>
        <linearGradient x1="45.8701438%" y1="39.3430438%" x2="56.8150635%" y2="103.293509%" id="linearGradient-6">
            <stop stop-color="#FFCA6D" offset="0%"></stop>
            <stop stop-color="#F6A923" offset="100%"></stop>
        </linearGradient>
        <linearGradient x1="45.4018134%" y1="39.3430438%" x2="57.5878995%" y2="103.293509%" id="linearGradient-7">
            <stop stop-color="#FFCA6D" offset="0%"></stop>
            <stop stop-color="#F6A923" offset="100%"></stop>
        </linearGradient>
    </defs>
    <g id="icons" stroke="none" stroke-width="1" fill="none" fill-rule="evenodd">
        <g id="Group-5" transform="translate(5.000000, 4.000000)" fill-rule="nonzero">
            <path d="M29.5947986,21.3326539 L29.5947986,23.5943217 C29.5947986,24.1907498 29.9596666,24.7205092 30.5013687,24.9107298 L30.5013687,24.9107298 L36.2802896,26.9397259 C37.905396,27.5103172 39,29.0997362 39,30.8888798 L39,30.8888798 L39,35.3302699 C39,35.7248614 38.6934245,36.0447586 38.3152653,36.0447586 L38.3152653,36.0447586 L19.9143618,36.0446539 L19.915204,32.5089326 C19.915204,32.131875 19.7252336,31.8198019 19.4775934,31.7661776 L19.4017035,31.7580372 C19.1180672,31.7580372 18.8882031,32.0941692 18.8882031,32.5089326 L18.8882031,32.5089326 L18.8873618,36.0446539 L14.9510965,36.0447586 C14.6044506,36.0447586 14.3179548,35.7759561 14.2726128,35.4272197 L14.2663618,35.3302699 L14.2663618,30.8888798 C14.2663618,29.0997362 15.3609658,27.5103172 16.9860723,26.9397259 L16.9860723,26.9397259 L22.7649931,24.9107298 C23.3066952,24.7205092 23.6715632,24.1906794 23.6715632,23.5943217 L23.6715632,23.5943217 L23.6715632,21.3326539 L29.5947986,21.3326539 Z" id="Combined-Shape" fill="url(#linearGradient-1)"></path>
            <path d="M31.010956,25.0896864 L29.4743004,24.9108002 C28.9325982,24.7205796 28.5677302,24.1908202 28.5677302,23.5943921 L28.5677302,21.3326539 L23.6715632,21.3326539 L23.6715632,23.5943921 C23.6715632,24.1907498 23.3066952,24.7205796 22.7649931,24.9108002 L22.0921328,25.1470623 L25.4088018,27.8284545 L31.010956,25.0896864 Z" id="Path" fill="#FFFFFF"></path>
            <path d="M27.5406619,21.3326539 L27.5406619,24.6660901 C27.5406619,25.2624478 27.9055299,25.7922776 28.447232,25.9824982 L28.8764647,26.1332244 L31.010956,25.0897568 L30.5013687,24.9108706 C29.9596666,24.72065 29.5947986,24.1908906 29.5947986,23.5944625 L29.5947986,21.3327243 L27.5406619,21.3327243 L27.5406619,21.3326539 Z" id="Path" fill="#FFFFFF"></path>
            <path d="M26.6332146,23.568485 C26.6332146,23.568485 24.5379223,23.692248 23.6714958,23.2528117 C21.4809384,22.1418306 19.9710676,19.7975837 19.9710676,17.0854268 L19.9710676,12.912894 L26.5389616,9.70709286 L33.106923,12.912894 L33.106923,17.0854268 C33.106923,19.7190878 31.6832091,22.0057476 29.5950684,23.1531958 C28.6821563,23.6547953 27.7365895,23.568485 26.6332146,23.568485 L26.6332146,23.568485 Z" id="Path" fill="#FFFFFF"></path>
            <path d="M33.5568009,17.0148861 L33.1068555,17.0148861 L33.1068555,14.3628507 L33.5568009,14.3628507 C34.2586725,14.3628507 34.8276318,14.9565332 34.8276318,15.6889036 C34.8276318,16.4212036 34.2586725,17.0148861 33.5568009,17.0148861 Z" id="Path" fill="#FFFFFF"></path>
            <path d="M19.5210548,17.0148861 L19.9710002,17.0148861 L19.9710002,14.3628507 L19.5210548,14.3628507 C18.8191831,14.3628507 18.2502238,14.9565332 18.2502238,15.6889036 C18.2502238,16.4212036 18.8191831,17.0148861 19.5210548,17.0148861 Z" id="Path" fill="#FFFFFF"></path>
            <path d="M26.4449784,0 C27.5513893,0 28.5411477,0.518706605 29.2047649,1.33534567 C29.3214174,1.4788911 29.5050659,1.54260303 29.6802133,1.49775828 C30.0930512,1.3920176 30.5334161,1.35970404 30.9889614,1.41778397 C32.6432141,1.62856133 33.9604631,3.01846694 34.1383093,4.74748895 C34.2808696,6.13317056 33.7037466,7.38727472 32.7490042,8.15554904 C32.60948,8.26783691 32.5421467,8.4522143 32.572305,8.63335329 C32.7504885,9.70364327 32.928672,11.8425336 33.1068555,12.9128236 C31.2560679,12.6379823 29.1254898,12.4401585 26.7650475,12.4281905 C24.2192701,12.4153074 21.9339199,12.6214383 19.9710002,12.9128236 L19.9710002,12.9128236 L20.4877391,8.76380434 C20.5197865,8.57309096 20.4432775,8.37991359 20.290732,8.26966731 C19.3054264,7.55750173 18.6750036,6.34873512 18.7339033,4.98973508 C18.8170916,3.06999968 20.2985583,1.50641747 22.1372015,1.3955376 C22.5088164,1.37315042 22.8686242,1.41039198 23.209676,1.49768788 C23.3848234,1.54253263 23.5684718,1.4787503 23.6851244,1.33527527 C24.3487415,0.518706605 25.3385674,0 26.4449784,0 Z M26.4449784,6.11754178 C26.1613421,6.11754178 25.9314779,6.35739431 25.9314779,6.65335557 L25.9314779,6.65335557 L25.9314779,9.22245982 C25.9314779,9.51842108 26.1613421,9.7582736 26.4449784,9.7582736 C26.7286147,9.7582736 26.9585463,9.51842108 26.9584788,9.22245982 L26.9584788,9.22245982 L26.9584788,6.65335557 C26.9584788,6.35739431 26.7286147,6.11754178 26.4449784,6.11754178 Z M23.8468456,6.447647 C23.737952,6.17435452 23.4373811,6.04510026 23.1755371,6.15865533 C22.9136255,6.2722808 22.7896865,6.58591244 22.8985801,6.85913453 L22.8985801,6.85913453 L23.9226124,9.42823878 C24.0325856,9.70498087 24.3373394,9.82853272 24.593921,9.71723045 C24.8558325,9.60360498 24.9797716,9.28997334 24.8708779,9.01675125 L24.8708779,9.01675125 Z M29.7143522,6.15865533 C29.4525081,6.04495946 29.1519373,6.17435452 29.0430437,6.447647 L29.0430437,6.447647 L28.0190114,9.01675125 C27.9100502,9.28997334 28.0340568,9.60360498 28.2959683,9.71723045 C28.5520776,9.82832152 28.8573712,9.70462887 28.9672769,9.42823878 L28.9672769,9.42823878 L29.9913092,6.85913453 C30.1002703,6.58591244 29.9762637,6.2722808 29.7143522,6.15865533 Z" id="Combined-Shape" fill="url(#linearGradient-2)"></path>
            <path d="M36.2802896,26.9397259 L31.010956,25.0896864 L24.9095372,28.0724606 C24.0365662,28.4992249 23.479009,29.4143535 23.479009,30.4202979 L23.479009,35.5089449 L23.479009,36.0447586 L38.3152653,36.0447586 C38.6934245,36.0447586 39,35.7248614 39,35.3302699 L39,30.8888798 C39,29.0997362 37.905396,27.5103172 36.2802896,26.9397259 L36.2802896,26.9397259 Z" id="Path" fill="url(#linearGradient-3)"></path>
            <ellipse id="Oval" fill="#FFFFFF" cx="26.1568892" cy="30.8648734" rx="1" ry="1"></ellipse>
            <ellipse id="Oval" fill="#FFFFFF" cx="29.2380942" cy="30.8648734" rx="1" ry="1"></ellipse>
            <ellipse id="Oval" fill="#FFFFFF" cx="26.1568892" cy="34.0799673" rx="1" ry="1"></ellipse>
            <ellipse id="Oval" fill="#FFFFFF" cx="29.2380942" cy="34.0799673" rx="1" ry="1"></ellipse>
            <path d="M2.83488776,39.5027286 L6.03719035,39.5027286 C6.08169693,39.7817652 6.31291403,40 6.60492061,40 L13.8855455,40 C14.1786376,40 14.4087692,39.7828509 14.4532758,39.5027286 L17.6555784,39.5027286 C18.197256,39.5027286 18.6358086,39.0640874 18.6358086,38.5223005 L1.85574304,38.5223005 C1.85574304,39.0640874 2.29429566,39.5027286 2.83488776,39.5027286 Z" id="Shape" fill="url(#linearGradient-4)"></path>
            <path d="M19.9606576,26.8653494 C19.9606576,27.4266798 19.9487168,27.9662953 19.9270063,28.4939676 C20.6836181,28.4103652 21.8331905,28.4212226 22.6495063,29.0824416 C23.071776,29.4233657 23.5646049,30.0813274 23.5135852,31.2669614 C23.3952628,33.9748105 20.2418089,34.7467755 18.2813484,34.7847766 C17.3814471,36.0681277 16.0245393,37.0333554 13.9783222,37.6077147 L13.9783222,37.6077147 L5.98233545,37.6077147 C0.816315779,36.1549874 0,32.2615042 0,26.8653494 L0,26.8653494 Z M21.7278944,30.2257316 C21.2665458,29.8500636 20.3536181,29.9054366 19.8238813,29.9922963 C19.7012168,31.1855305 19.4786839,32.2712759 19.1030918,33.2365036 C20.2428945,33.0779848 21.9840787,32.6067713 22.0459537,31.2039882 C22.0763484,30.5101969 21.8125655,30.2952193 21.7278944,30.2257316 Z M17.7246542,27.9059601 C17.4831758,27.8797164 17.2662534,28.055209 17.2401445,28.2979338 C17.0306135,30.2458634 16.6755824,31.569649 16.2026899,32.2476105 C16.0632544,32.447512 16.1114396,32.7231823 16.3103145,32.8633375 C16.5091894,33.0034926 16.7834442,32.9550587 16.9228796,32.7551573 C17.5023515,31.9243986 17.8903838,30.477563 18.1146151,28.3929706 C18.140724,28.1502459 17.9661326,27.9322038 17.7246542,27.9059601 Z" id="Combined-Shape" fill="url(#linearGradient-5)"></path>
            <path d="M13.3619432,26.1074991 C13.3619432,26.1074991 17.1612853,25.8284625 15.4201011,22.6244278 C14.0219432,20.0522969 14.341088,18.5431107 16.1300353,17.1794144 C16.1300353,17.1794144 10.2703643,18.6723144 13.6876011,23.2921612 C14.941384,25.3051333 13.3619432,26.1074991 13.3619432,26.1074991 Z" id="Shape" fill="url(#linearGradient-6)"></path>
            <path d="M10.9438963,25.8512632 C10.9438963,25.8512632 13.9877121,25.2095877 12.3311989,22.7612317 C11.7298173,21.6993727 12.5591594,21.3204475 12.5591594,21.3204475 C12.5591594,21.3204475 10.5997845,21.382335 11.4269555,23.0663262 C12.0891265,24.4202507 11.8926463,25.1889585 10.9438963,25.8512632 Z" id="Shape" fill="url(#linearGradient-7)"></path>
        </g>
    </g>
</svg>