<?xml version="1.0" encoding="UTF-8"?>
<svg width="48px" height="48px" viewBox="0 0 48 48" version="1.1" xmlns="http://www.w3.org/2000/svg" xmlns:xlink="http://www.w3.org/1999/xlink">
    <title>ic_maintenance</title>
    <defs>
        <linearGradient x1="22.5298738%" y1="27.7357526%" x2="66.3682491%" y2="87.6743755%" id="linearGradient-1">
            <stop stop-color="#24ADFB" offset="0%"></stop>
            <stop stop-color="#0066FE" offset="100%"></stop>
        </linearGradient>
        <linearGradient x1="23.3189408%" y1="39.6043884%" x2="94.0289209%" y2="101.986572%" id="linearGradient-2">
            <stop stop-color="#FFCA6D" offset="0%"></stop>
            <stop stop-color="#F6A923" offset="100%"></stop>
        </linearGradient>
    </defs>
    <g id="icons" stroke="none" stroke-width="1" fill="none" fill-rule="evenodd">
        <g id="Group-10" transform="translate(4.000000, 7.000000)" fill-rule="nonzero">
            <path d="M22.1652406,0.095393087 C23.3705392,-0.035227488 24.5829343,-0.0312857641 25.7847542,0.10463575 C26.2566045,0.158324748 26.6028044,0.560244665 26.5745573,1.02278558 C26.4887031,2.49440781 27.3626907,3.86544812 28.7473509,4.4345515 C30.0784391,4.97701426 31.8009502,4.59154085 32.759818,3.55418786 C33.0777708,3.21044235 33.6161338,3.17048142 33.98251,3.45754766 C34.918975,4.19030054 35.776404,5.03586828 36.5311419,5.97182383 C36.821126,6.33092847 36.7789642,6.84824575 36.4330426,7.15719535 C35.3347487,8.14140303 34.9733818,9.70327715 35.5334519,11.0427837 C36.0821118,12.3508923 37.3903798,13.1960523 38.864512,13.1960523 C39.3206386,13.1960523 39.8481481,13.5283804 39.898937,13.9701253 C40.0355802,15.16039 40.0340496,16.362208 39.8919796,17.5435019 C39.8361814,18.0035963 39.4119196,18.3508757 38.9502271,18.3143128 L38.9502271,18.3143128 L38.7512457,18.3091478 C37.3291547,18.3091478 36.006972,19.1649097 35.4603992,20.4394457 C34.8789004,21.793224 35.2419371,23.3692339 36.3616598,24.3592862 C36.7124515,24.6698669 36.7546133,25.1935725 36.4575327,25.5537645 C35.6924978,26.484555 34.8173971,27.3302587 33.8550506,28.0673611 C33.4846391,28.3472235 32.9589385,28.3061752 32.6409857,27.9681384 C31.6835094,26.9413873 29.9806182,26.5548265 28.6567656,27.0830175 C27.2871334,27.6306452 26.4013183,28.9776275 26.4551685,30.4341624 C26.4708922,30.8909946 26.1255273,31.2838078 25.6591037,31.3340987 C25.0703692,31.3981178 24.4816347,31.4295156 23.8930393,31.4295156 C23.2728574,31.4295156 22.6546236,31.3947197 22.0395901,31.3244483 C21.5694095,31.2719826 21.2223748,30.8688394 21.2503436,30.4062985 C21.3356412,28.9342685 20.462071,27.5633641 19.0733756,26.9957559 C17.7477141,26.4522057 16.0254813,26.8369995 15.0628566,27.8767991 C14.743234,28.2209524 14.2069582,28.2615929 13.8382164,27.9715364 C12.8989685,27.2325311 12.0407046,26.3864197 11.2936199,25.4563088 C11.0030792,25.0976119 11.0470499,24.5815179 11.3911625,24.2725683 C12.4912653,23.2870014 12.8530497,21.7258069 12.2910316,20.3863004 C11.7262305,19.0451628 10.3817841,18.1983718 8.98056534,18.2331677 C8.5194294,18.2331677 7.97633538,17.9036939 7.92554641,17.4600461 C7.78945983,16.2701892 7.79099045,15.0670119 7.93236466,13.8868054 C7.98871953,13.4336431 8.35175625,13.0988684 8.86187223,13.1149072 C10.4338254,13.1149072 11.8070754,12.2826597 12.3622753,10.9907257 C12.9437741,9.63558824 12.5826855,8.06025789 11.4626845,7.06952597 C11.1138409,6.759489 11.0700093,6.23646301 11.3668116,5.87559139 C12.1285069,4.94724745 13.0052775,4.10113603 13.9692937,3.36213076 C14.3381746,3.08118099 14.8670756,3.12277297 15.1833586,3.46148938 C16.1402783,4.48973564 17.8508227,4.8723547 19.1659089,4.34756173 C20.5372109,3.79884658 21.421078,2.4520003 21.3688975,0.994785746 C21.3534521,0.538089458 21.6993736,0.145684047 22.1652406,0.095393087 Z M23.9658136,9.10119015 C20.2514342,9.10119015 17.2403347,12.0551513 17.2403347,15.699047 C17.2403347,19.3429427 20.2514342,22.2969038 23.9658136,22.2969038 C27.6801931,22.2969038 30.6912926,19.3429427 30.6912926,15.699047 C30.6912926,12.0551513 27.6801931,9.10119015 23.9658136,9.10119015 Z" id="Combined-Shape" fill="url(#linearGradient-1)"></path>
            <path d="M9.67513715,12.1348086 L11.0192141,12.5300669 L10.7954851,14.2367882 L10.4483795,15.1907545 L8.74731271,20.6995631 L8.63,23.54 L8.90845778,22.6146525 C9.10659829,21.7430071 9.15581498,21.5491825 9.10389157,21.4217757 L9.09123447,21.3952681 L9.25980929,20.6098744 L12.118,23.291 L14.9653456,19.9362369 C14.5499002,18.6176786 14.6604246,17.1972465 15.4438373,16.0800966 L15.5891016,15.8861833 C16.4180871,14.8493924 17.7293937,14.3030374 19.0898171,14.4648358 L19.0898171,14.4648358 L17.6586303,17.1629138 L18.3219881,18.6260391 L19.8740854,18.9237902 L21.523681,16.8599852 C22.1359853,17.6017063 22.3526416,18.3159976 22.3192231,18.9691924 C22.2876565,19.5861897 22.0300496,20.1540349 21.6383613,20.6440939 C21.1602503,21.2420168 20.537103,21.6601548 19.8572649,21.8883788 C19.2320517,22.098265 18.5588565,22.1472743 17.9066778,22.02768 L17.9066778,22.02768 L16.0254886,24.5749823 L19.91519,24.5749823 L19.91519,23.9849237 C19.91519,23.6317038 20.0583606,23.3119232 20.2898362,23.0804476 C20.5213119,22.848972 20.8410924,22.7058014 21.1943123,22.7058014 C21.5205093,22.7058014 21.8181666,22.8279326 22.0441268,23.028893 C22.2776929,23.2366179 22.4344132,23.5286936 22.4671099,23.8571812 L22.4671099,23.8571812 L22.4713433,24.5749823 L23.0743183,24.5749823 L23.0743183,31.3386638 C23.0743183,32.4097408 22.6517571,33.3830562 21.9624848,34.1034349 C21.2686042,34.8286297 20.3042913,35.2972944 19.2293426,35.3505882 L19.2293426,35.3505882 L5.26060238,35.3556666 C4.18143484,35.3556666 3.20084545,34.9370169 2.47492872,34.2550467 C1.74176144,33.5662649 1.26845781,32.6089229 1.21462445,31.5424035 L1.21462445,31.5424035 L1.20921782,24.5749823 L1.81037755,24.5749823 L1.81037755,23.997908 C1.81037755,23.671624 1.93199156,23.3735955 2.13241517,23.1467844 C2.33513922,22.91737 2.61861039,22.761041 2.93842562,22.7218136 C3.35402674,22.7147011 3.66616231,22.8292333 3.89771917,23.0106449 C4.16426098,23.2194654 4.32883296,23.5194112 4.36259059,23.8580448 L4.36259059,23.8580448 L4.36679536,24.5749823 L5.58891954,21.5209064 C5.65821952,21.2900267 5.78198333,21.0892214 5.94160323,20.9286295 C5.97063133,20.706978 6.03048389,20.5505155 6.09970174,20.439631 L6.09970174,20.439631 L8.67133808,14.6745197 L8.93858801,13.6831006 L9.67513715,12.1348086 Z M5.75037719,14.128228 L5.79504342,14.1302884 L5.85065675,14.1317998 L5.89868525,14.1334601 L5.97443189,14.1361162 L6.06416051,14.1456908 L6.22426759,14.1702585 L6.31095251,14.183594 L6.4171929,14.2003373 L6.53028952,14.2265875 L6.88808028,14.3274521 C7.0208169,14.3660649 7.13098797,14.448097 7.20569033,14.554567 C7.28094907,14.6618299 7.32025903,14.7938841 7.31082413,14.9295704 C7.30166847,15.074609 7.23789337,15.2073937 7.13722586,15.3083027 C7.07347009,15.3706593 6.99574573,15.4187535 6.90872683,15.4474862 L6.90872683,15.4474862 L6.82676363,15.4684664 L6.45191138,15.5227738 C6.43686848,15.5247794 6.41492551,15.5330067 6.38993812,15.5402384 L6.38993812,15.5402384 L6.33854347,15.5547431 L6.30124657,15.5645583 L6.17401384,15.6004536 L6.16056061,15.6061473 L6.1079966,15.6285305 L6.01814185,15.6657915 C5.98307919,15.6797023 5.94916289,15.69108 5.91710797,15.7114535 L5.91710797,15.7114535 L5.91337555,15.7138661 C5.87904752,15.734136 5.85140676,15.7494747 5.83069605,15.7605371 L5.83069605,15.7605371 L5.75413048,15.804436 L5.68555662,15.8518313 L5.57275671,15.9330659 C5.56026142,15.9432361 5.54857474,15.9544865 5.53683557,15.9653351 L5.53683557,15.9653351 L5.52962841,15.9719067 L5.48511091,16.0113808 L5.4066008,16.084338 L5.33681556,16.1588512 L5.30497413,16.1935775 C5.27570852,16.2245824 5.24913615,16.2605292 5.22047375,16.2980476 L5.22047375,16.2980476 L5.21288315,16.3079724 L5.173,16.359 C5.16437164,16.3734677 5.15614167,16.3858065 5.1483178,16.3974458 L5.12641381,16.4296578 L5.08740059,16.4881076 L5.05522718,16.5429496 L5.0019032,16.6362701 L4.95848612,16.7234844 L4.938,16.765 L7.78875076,19.5894047 L7.43520917,20.7680776 L6.78946534,20.5777235 C6.74606031,20.5649112 6.70097542,20.558539 6.65570049,20.558539 C6.54337704,20.558539 6.43860332,20.6011308 6.35650276,20.6703396 L6.35650276,20.6703396 L6.03333634,20.9972095 L3.57,18.556 L3.53633342,18.6198017 C3.31611542,18.9953658 2.93437087,19.4370509 2.51245597,19.8642311 L2.37049635,20.0059767 L2.32806319,20.047784 L1.95062944,20.4206282 L-0.505387522,17.9880107 L-0.250313211,17.7353154 C-0.175266536,17.6609686 -0.102353511,17.588354 -0.0314880529,17.5177791 C0.697707639,16.7915733 1.2452539,16.3435055 1.66611166,16.2390588 C1.72935984,16.1317567 1.79776965,16.0329542 1.86905484,15.9466535 L1.86905484,15.9466535 L1.97458982,15.8298674 L2.25611879,15.5513464 C2.4887387,15.3201749 2.77870576,15.1808952 3.08074625,15.1310865 L2.976,15.153 L3.01506621,15.1232302 L3.14992834,15.0166552 L3.17748954,14.9960704 L3.30178134,14.9082615 C3.38697643,14.8455458 3.47875652,14.7898916 3.56749246,14.736676 L3.56749246,14.736676 L3.6376934,14.694562 L3.68671872,14.6651655 L3.77285922,14.6197022 C3.87612486,14.5651876 3.98228412,14.5095762 4.11570043,14.4547293 C4.20659336,14.4167505 4.2995671,14.3782306 4.39560873,14.3447349 L4.39560873,14.3447349 L4.53803111,14.2999017 L4.59770774,14.2818225 L4.67671485,14.2579989 L4.77377024,14.2319877 L4.96681528,14.1933152 C5.0586617,14.1719086 5.15016753,14.1593871 5.24052272,14.1504142 L5.24052272,14.1504142 L5.34961103,14.1408312 L5.41612297,14.1355336 L5.75037719,14.128228 Z" id="Combined-Shape" stroke="#E9EEF8" stroke-width="0.711333112" fill="url(#linearGradient-2)"></path>
        </g>
    </g>
</svg>