<?xml version="1.0" encoding="UTF-8"?>
<svg width="48px" height="48px" viewBox="0 0 48 48" version="1.1" xmlns="http://www.w3.org/2000/svg" xmlns:xlink="http://www.w3.org/1999/xlink">
    <title>ic_realestate</title>
    <defs>
        <linearGradient x1="30.5213329%" y1="26.6668765%" x2="61.6064875%" y2="89.4830709%" id="linearGradient-1">
            <stop stop-color="#24ADFB" offset="0%"></stop>
            <stop stop-color="#0066FE" offset="100%"></stop>
        </linearGradient>
        <linearGradient x1="23.3189408%" y1="42.5886557%" x2="94.0289209%" y2="87.0627911%" id="linearGradient-2">
            <stop stop-color="#FFCA6D" offset="0%"></stop>
            <stop stop-color="#F6A923" offset="100%"></stop>
        </linearGradient>
        <linearGradient x1="23.3189408%" y1="49.0843024%" x2="94.0289209%" y2="54.579238%" id="linearGradient-3">
            <stop stop-color="#FFCA6D" offset="0%"></stop>
            <stop stop-color="#F6A923" offset="100%"></stop>
        </linearGradient>
    </defs>
    <g id="icons" stroke="none" stroke-width="1" fill="none" fill-rule="evenodd">
        <g id="Group-9" transform="translate(4.000000, 6.000000)" fill-rule="nonzero">
            <path d="M35.844849,4.08782064 C41.3850503,9.53824817 41.3850503,18.3751372 35.844849,23.8255647 L25.8134271,33.6944367 L15.7820051,23.8255647 C10.2418038,18.3751372 10.2418038,9.53824817 15.7820051,4.08782064 C21.3222065,-1.36260688 30.3046476,-1.36260688 35.844849,4.08782064 Z M25.8134271,6.05567372 C21.7145467,6.05567372 18.3917477,9.36991525 18.3917477,13.4582394 C18.3917477,17.5465635 21.7145467,20.860805 25.8134271,20.860805 C29.9123074,20.860805 33.2351064,17.5465635 33.2351064,13.4582394 C33.2351064,9.36991525 29.9123074,6.05567372 25.8134271,6.05567372 Z" id="Combined-Shape" fill="url(#linearGradient-1)"></path>
            <path d="M22.8257751,18.974099 L22.8257751,33.1200286 C22.8257751,34.7105929 21.9948012,36 20.9697429,36 L15.6004205,35.999099 L15.6005067,29.0857641 C15.6005067,28.5692886 15.2422552,28.1436176 14.7807169,28.0854425 L14.6724906,28.078667 L10.9604261,28.078667 L10.8521999,28.0854425 C10.3906615,28.1436176 10.03241,28.5692886 10.03241,29.0857641 L10.03241,29.0857641 L10.0314205,35.999099 L4.26545271,36 C3.24039441,36 2.40942048,34.7105929 2.40942048,33.1200286 L2.40942048,18.974099 L22.8257751,18.974099 Z" id="Combined-Shape" stroke="#E9EEF8" stroke-width="1.48433587" fill="url(#linearGradient-2)"></path>
            <path d="M2.97960656,14.7088499 L22.3617379,14.7088499 C22.7561473,14.7088499 23.1074693,14.9581486 23.2377029,15.3304361 L25.1779899,20.8769695 C25.3472264,21.3607516 25.0922368,21.8901278 24.6084547,22.0593644 C24.509964,22.0938184 24.406368,22.1114155 24.3020249,22.1114155 L0.952572306,22.1114155 C0.440043156,22.1114155 0.0245561866,21.6959286 0.0245561866,21.1833994 C0.0245561866,21.0747351 0.0436408284,20.9669152 0.0809404055,20.8648531 L2.10797466,15.3183197 C2.24173757,14.9523069 2.58991711,14.7088499 2.97960656,14.7088499 Z" id="Rectangle-145" stroke="#E9EEF8" stroke-width="1.48433587" fill="url(#linearGradient-3)"></path>
        </g>
    </g>
</svg>