<?xml version="1.0" encoding="UTF-8"?>
<svg width="28px" height="28px" viewBox="0 0 28 28" version="1.1" xmlns="http://www.w3.org/2000/svg" xmlns:xlink="http://www.w3.org/1999/xlink">
    <!-- Generator: Sketch 63.1 (92452) - https://sketch.com -->
    <title>logo_small</title>
    <desc>Created with Sketch.</desc>
    <g id="Let's-talk" stroke="none" stroke-width="1" fill="none" fill-rule="evenodd">
        <g id="Group-3">
            <g id="Group-33-Copy">
                <g id="Group-7-Copy">
                    <g id="Group-6" transform="translate(6.849250, 0.012820)" fill="#1975FE">
                        <ellipse id="Oval" cx="7.21103853" cy="2.68246746" rx="2.65564278" ry="2.68246746"></ellipse>
                        <path d="M7.85777549,11.8984096 L17.5193107,2.16688053 C17.8304851,1.85345181 17.8415136,1.35116887 17.5443962,1.02438404 C17.2451752,0.695285549 16.7430597,0.651952598 16.3918799,0.924921003 L7.71182393,7.67183788 C7.32144214,7.97527757 6.77907292,7.98952507 6.3732984,7.70699961 L1.70908807,4.45948626 C1.27537831,4.15751055 0.690256383,4.19665122 0.300631029,4.55370243 L0.286903302,4.56628247 C-0.0743946595,4.89737457 -0.0988813463,5.45866762 0.232210756,5.81996558 C0.2400154,5.82848225 0.247985613,5.8368457 0.256116837,5.84505114 L6.25398056,11.8976608 C6.69305374,12.3407416 7.40818086,12.3439905 7.85126171,11.9049173 C7.8534418,11.902757 7.85561308,11.9005877 7.85777549,11.8984096 Z" id="Path-4"></path>
                    </g>
                    <g id="Group-6-Copy-2" transform="translate(6.555252, 12.087371) rotate(-90.000000) translate(-6.555252, -12.087371) translate(-2.444748, 5.587371)" fill="#FBA919">
                        <ellipse id="Oval" cx="7.21103853" cy="2.68246746" rx="2.65564278" ry="2.68246746"></ellipse>
                        <path d="M7.85777549,11.8984096 L17.5193107,2.16688053 C17.8304851,1.85345181 17.8415136,1.35116887 17.5443962,1.02438404 C17.2451752,0.695285549 16.7430597,0.651952598 16.3918799,0.924921003 L7.71182393,7.67183788 C7.32144214,7.97527757 6.77907292,7.98952507 6.3732984,7.70699961 L1.70908807,4.45948626 C1.27537831,4.15751055 0.690256383,4.19665122 0.300631029,4.55370243 L0.286903302,4.56628247 C-0.0743946595,4.89737457 -0.0988813463,5.45866762 0.232210756,5.81996558 C0.2400154,5.82848225 0.247985613,5.8368457 0.256116837,5.84505114 L6.25398056,11.8976608 C6.69305374,12.3407416 7.40818086,12.3439905 7.85126171,11.9049173 C7.8534418,11.902757 7.85561308,11.9005877 7.85777549,11.8984096 Z" id="Path-4"></path>
                    </g>
                    <g id="Group-6-Copy-3" transform="translate(21.282789, 15.937355) scale(-1, -1) rotate(-90.000000) translate(-21.282789, -15.937355) translate(12.282789, 9.437355)" fill="#FBA919">
                        <ellipse id="Oval" cx="7.21103853" cy="2.68246746" rx="2.65564278" ry="2.68246746"></ellipse>
                        <path d="M7.85777549,11.8984096 L17.5193107,2.16688053 C17.8304851,1.85345181 17.8415136,1.35116887 17.5443962,1.02438404 C17.2451752,0.695285549 16.7430597,0.651952598 16.3918799,0.924921003 L7.71182393,7.67183788 C7.32144214,7.97527757 6.77907292,7.98952507 6.3732984,7.70699961 L1.70908807,4.45948626 C1.27537831,4.15751055 0.690256383,4.19665122 0.300631029,4.55370243 L0.286903302,4.56628247 C-0.0743946595,4.89737457 -0.0988813463,5.45866762 0.232210756,5.81996558 C0.2400154,5.82848225 0.247985613,5.8368457 0.256116837,5.84505114 L6.25398056,11.8976608 C6.69305374,12.3407416 7.40818086,12.3439905 7.85126171,11.9049173 C7.8534418,11.902757 7.85561308,11.9005877 7.85777549,11.8984096 Z" id="Path-4"></path>
                    </g>
                    <g id="Group-6-Copy" transform="translate(12.012382, 21.454135) scale(-1, -1) translate(-12.012382, -21.454135) translate(3.012382, 14.954135)" fill="#1975FE">
                        <ellipse id="Oval" cx="7.21103853" cy="2.68246746" rx="2.65564278" ry="2.68246746"></ellipse>
                        <path d="M7.85777549,11.8984096 L17.5193107,2.16688053 C17.8304851,1.85345181 17.8415136,1.35116887 17.5443962,1.02438404 C17.2451752,0.695285549 16.7430597,0.651952598 16.3918799,0.924921003 L7.71182393,7.67183788 C7.32144214,7.97527757 6.77907292,7.98952507 6.3732984,7.70699961 L1.70908807,4.45948626 C1.27537831,4.15751055 0.690256383,4.19665122 0.300631029,4.55370243 L0.286903302,4.56628247 C-0.0743946595,4.89737457 -0.0988813463,5.45866762 0.232210756,5.81996558 C0.2400154,5.82848225 0.247985613,5.8368457 0.256116837,5.84505114 L6.25398056,11.8976608 C6.69305374,12.3407416 7.40818086,12.3439905 7.85126171,11.9049173 C7.8534418,11.902757 7.85561308,11.9005877 7.85777549,11.8984096 Z" id="Path-4"></path>
                    </g>
                </g>
            </g>
        </g>
    </g>
</svg>