<?xml version="1.0" encoding="UTF-8"?>
<svg width="64px" height="64px" viewBox="0 0 64 64" version="1.1" xmlns="http://www.w3.org/2000/svg" xmlns:xlink="http://www.w3.org/1999/xlink">
    <title>cab</title>
    <defs>
        <linearGradient x1="30.7118455%" y1="26.6668765%" x2="61.4929693%" y2="89.4830709%" id="linearGradient-1">
            <stop stop-color="#24ADFB" offset="0%"></stop>
            <stop stop-color="#0066FE" offset="100%"></stop>
        </linearGradient>
        <linearGradient x1="23.3189408%" y1="44.3240329%" x2="94.0289209%" y2="78.3844838%" id="linearGradient-2">
            <stop stop-color="#FFCA6D" offset="0%"></stop>
            <stop stop-color="#F6A923" offset="100%"></stop>
        </linearGradient>
        <linearGradient x1="23.3189408%" y1="42.115908%" x2="94.0289209%" y2="89.426917%" id="linearGradient-3">
            <stop stop-color="#FFCA6D" offset="0%"></stop>
            <stop stop-color="#F6A923" offset="100%"></stop>
        </linearGradient>
    </defs>
    <g id="Page-1" stroke="none" stroke-width="1" fill="none" fill-rule="evenodd">
        <circle id="Oval" fill="#E9EEF8" cx="32" cy="32" r="32"></circle>
        <g id="Group-5" transform="translate(13.000000, 14.000000)" fill-rule="nonzero">
            <path d="M35.9831787,3.97120685 C41.3389404,9.26614931 41.3389404,17.8509472 35.9831787,23.1458897 L26.2857143,32.7332311 L25.9520141,32.4036709 C26.1291407,32.2214278 26.2477892,31.9830878 26.2780739,31.7182352 L26.2857143,31.5837365 L26.2857143,27.8935405 C26.2857143,26.1178924 25.2975321,24.5707188 23.835866,23.7615273 L23.6425711,23.6602076 L22.4023216,19.1466562 C23.5063451,19.8979919 24.8440758,20.3378224 26.2857143,20.3378224 C30.0728097,20.3378224 33.1428571,17.302638 33.1428571,13.5585483 C33.1428571,9.81445856 30.0728097,6.77927414 26.2857143,6.77927414 C22.4986189,6.77927414 19.4285714,9.81445856 19.4285714,13.5585483 C19.4285714,14.148618 19.5048248,14.72108 19.6481209,15.2668282 C19.467989,15.2211904 19.2810628,15.1928086 19.0903687,15.1816403 L18.9059457,15.1762502 L15.4106019,15.1762502 C15.0944475,14.2362966 14.198607,13.5585483 13.1428571,13.5585483 C12.9459543,13.5585483 12.7546138,13.5821232 12.5715589,13.6265772 C12.5537208,10.1346928 13.8926023,6.63624303 16.5882499,3.97120685 C21.9440116,-1.32373562 30.627417,-1.32373562 35.9831787,3.97120685 Z M21.7142857,27.1170966 C22.3454683,27.1170966 22.8571429,27.6229606 22.8571429,28.2469756 C22.8571429,28.550713 22.7359156,28.8264578 22.5386862,29.0294983 L20.9227747,27.4319369 C21.1281474,27.2369472 21.4070595,27.1170966 21.7142857,27.1170966 Z" id="Combined-Shape" fill="url(#linearGradient-1)"></path>
            <g id="Group-10" transform="translate(0.000000, 14.688427)">
                <path d="M22.1183873,9.43829906 C23.5845199,10.1637199 24.591133,11.6624591 24.591133,13.3936355 L24.591133,16.8415021 C24.591133,17.4518239 24.0906864,17.9465875 23.4733542,17.9465875 L1.11777877,17.9465875 C0.500446603,17.9465875 0,17.4518239 0,16.8415021 L0,13.3936355 C0,11.6711821 0.996494494,10.1788295 2.45061818,9.44932361 L4.2158172,3.62535417 C4.59651483,2.36930804 5.74551688,1.51146998 7.04718757,1.51146998 L10.1740182,1.51146998 C10.4697909,0.633241674 11.3078785,0 12.2955665,0 C13.2832545,0 14.1213422,0.633241674 14.4171148,1.51146998 L17.6871217,1.51146998 C19.0173882,1.51146998 20.1843473,2.40670524 20.5401078,3.70014475 L22.1183873,9.43829906 L22.1183873,9.43829906 Z M4.47111509,14.5816024 C5.08844726,14.5816024 5.58889386,14.0794173 5.58889386,13.4599407 C5.58889386,12.840464 5.08844726,12.3382789 4.47111509,12.3382789 C3.85378292,12.3382789 3.35333632,12.840464 3.35333632,13.4599407 C3.35333632,14.0794173 3.85378292,14.5816024 4.47111509,14.5816024 Z M20.1200179,14.5816024 C20.7373501,14.5816024 21.2377967,14.0794173 21.2377967,13.4599407 C21.2377967,12.840464 20.7373501,12.3382789 20.1200179,12.3382789 C19.5026857,12.3382789 19.0022391,12.840464 19.0022391,13.4599407 C19.0022391,14.0794173 19.5026857,14.5816024 20.1200179,14.5816024 Z M9.73399015,13.3416044 L14.8571429,13.3416044 C15.216264,13.3416044 15.5073892,13.0478385 15.5073892,12.6854599 C15.5073892,12.3230814 15.216264,12.0293155 14.8571429,12.0293155 L9.73399015,12.0293155 C9.37486903,12.0293155 9.08374384,12.3230814 9.08374384,12.6854599 C9.08374384,13.0478385 9.37486903,13.3416044 9.73399015,13.3416044 Z M8.68459437,15.3595919 L15.8570082,15.3595919 C16.2161293,15.3595919 16.5072545,15.065826 16.5072545,14.7034474 C16.5072545,14.3410688 16.2161293,14.0473029 15.8570082,14.0473029 L8.68459437,14.0473029 C8.32547325,14.0473029 8.03434806,14.3410688 8.03434806,14.7034474 C8.03434806,15.065826 8.32547325,15.3595919 8.68459437,15.3595919 Z M19.1423936,4.09159201 C18.9609246,3.431825 18.3656737,2.9751769 17.6871217,2.9751769 L7.04718757,2.9751769 C6.38322193,2.9751769 5.79713063,3.41274916 5.60294161,4.05344229 L4.33359258,8.24144031 L20.2838094,8.24144031 L19.1423936,4.09159201 Z" id="Shape" fill="url(#linearGradient-2)"></path>
                <path d="M2.23555755,17.9465875 L6.14778325,17.9465875 L6.14778325,20.1937939 C6.14778325,20.8111261 5.64733665,21.3115727 5.03000448,21.3115727 L3.35333632,21.3115727 C2.73600415,21.3115727 2.23555755,20.8111261 2.23555755,20.1937939 L2.23555755,17.9465875 L2.23555755,17.9465875 Z" id="Rectangle-15" fill="url(#linearGradient-3)"></path>
                <path d="M18.4433498,17.9465875 L22.3555755,17.9465875 L22.3555755,20.1937939 C22.3555755,20.8111261 21.8551289,21.3115727 21.2377967,21.3115727 L19.5611285,21.3115727 C18.9437964,21.3115727 18.4433498,20.8111261 18.4433498,20.1937939 L18.4433498,17.9465875 L18.4433498,17.9465875 Z" id="Rectangle-15-Copy" fill="url(#linearGradient-3)"></path>
            </g>
        </g>
    </g>
</svg>