<?xml version="1.0" encoding="UTF-8"?>
<svg width="48px" height="48px" viewBox="0 0 48 48" version="1.1" xmlns="http://www.w3.org/2000/svg" xmlns:xlink="http://www.w3.org/1999/xlink">
    <title>ic_beauty</title>
    <defs>
        <linearGradient x1="37.7924703%" y1="26.6668765%" x2="57.2739341%" y2="89.4830709%" id="linearGradient-1">
            <stop stop-color="#24ADFB" offset="0%"></stop>
            <stop stop-color="#0066FE" offset="100%"></stop>
        </linearGradient>
        <linearGradient x1="23.3189408%" y1="39.343555%" x2="94.0289209%" y2="103.290952%" id="linearGradient-2">
            <stop stop-color="#FFCA6D" offset="0%"></stop>
            <stop stop-color="#F6A923" offset="100%"></stop>
        </linearGradient>
    </defs>
    <g id="icons" stroke="none" stroke-width="1" fill="none" fill-rule="evenodd">
        <g id="Group-12" transform="translate(5.000000, 4.000000)" fill-rule="nonzero">
            <path d="M22.0799012,35.2022345 L32.3199576,35.2022345 C33.0268366,35.2022345 33.5999647,35.7753958 33.5999647,36.4823158 L33.5999647,37.762397 L20.7998941,37.762397 L20.7998941,36.4823158 C20.7998941,35.7753958 21.3730222,35.2022345 22.0799012,35.2022345 Z" id="Shape" fill="#026BFE"></path>
            <polygon id="Shape" fill="#FF6AA0" points="15.0398623 10.8806907 39.3599965 10.8806907 39.3599965 12.1607719 15.0398623 12.1607719"></polygon>
            <path d="M36.7999824,11.5207313 C36.7999824,5.51159986 32.5018337,0.640040627 27.1999294,0.640040627 C21.8980251,0.640040627 17.5998765,5.51159986 17.5998765,11.5207313 C17.5998765,17.5298627 21.8980251,22.401422 27.1999294,22.401422 C32.5018337,22.401422 36.7999824,17.5298627 36.7999824,11.5207313 Z" id="Shape" fill="#E8F1FE"></path>
            <path d="M36.7999824,11.5207313 C36.7999824,7.08572675 34.4587411,3.37726136 31.1006688,1.73868701 C29.9087801,1.15710386 23.6349719,2.98546413 21.4728868,9.57720357 C19.6653368,15.0880405 21.8980251,22.401422 27.1999294,22.401422 C32.5018337,22.401422 36.7999824,17.5298627 36.7999824,11.5207313 Z" id="Shape-Copy" fill="#C8DEFF"></path>
            <path d="M27.1999294,25.6016251 C20.142078,25.6016251 14.3998588,19.2849741 14.3998588,11.5207313 L14.3998588,10.24065 C14.3998588,9.88719008 14.6864229,9.60060941 15.0398623,9.60060941 C15.3933018,9.60060941 15.6798659,9.88719008 15.6798659,10.24065 L15.6798659,11.5207313 C15.6798659,18.5789918 20.8480193,24.3215438 27.1999294,24.3215438 C33.5518395,24.3215438 38.7199929,18.5789918 38.7199929,11.5207313 L38.7199929,10.24065 C38.7199929,9.88719008 39.006557,9.60060941 39.3599965,9.60060941 C39.7134359,9.60060941 40,9.88719008 40,10.24065 L40,11.5207313 C40,19.2849741 34.2577808,25.6016251 27.1999294,25.6016251 Z" id="Shape" fill="#696969"></path>
            <path d="M25.2799188,25.442865 L25.2799188,34.5621939 L22.0799012,34.5621939 C21.0195828,34.5621939 20.1598906,35.421936 20.1598906,36.4823158 L20.1598906,37.762397 C20.1598906,38.115857 20.4464546,38.4024376 20.7998941,38.4024376 L33.5999647,38.4024376 C33.9534042,38.4024376 34.2399682,38.115857 34.2399682,37.762397 L34.2399682,36.4823158 C34.2399682,35.421936 33.380276,34.5621939 32.3199576,34.5621939 L29.11994,34.5621939 L29.11994,25.442865 C35.2702864,24.4206126 40,18.5668035 40,11.5207313 L40,10.24065 C40,9.88719008 39.7134359,9.60060941 39.3599965,9.60060941 C39.006557,9.60060941 38.7199929,9.88719008 38.7199929,10.24065 L38.7199929,10.8806907 L37.4112357,10.8806907 C37.1137341,4.82655637 32.654022,0 27.1999294,0 C21.7458368,0 17.2861247,4.82655637 16.9886231,10.8806907 L15.6798659,10.8806907 L15.6798659,10.24065 C15.6798659,9.88719008 15.3933018,9.60060941 15.0398623,9.60060941 C14.6864229,9.60060941 14.3998588,9.88719008 14.3998588,10.24065 L14.3998588,11.5207313 C14.3998588,18.5668035 19.1295724,24.4206126 25.2799188,25.442865 Z M32.9599612,36.4823158 L32.9599612,37.1223564 L21.4398976,37.1223564 L21.4398976,36.4823158 C21.4398976,36.1288558 21.7264617,35.8422751 22.0799012,35.8422751 L32.3199576,35.8422751 C32.6733971,35.8422751 32.9599612,36.1288558 32.9599612,36.4823158 Z M27.8399329,25.6016251 L27.8399329,34.5621939 L26.5599259,34.5621939 L26.5599259,25.6016251 L27.8399329,25.6016251 Z M27.1999294,24.3215438 C21.0423954,24.3215438 16.0120552,18.9208885 15.7092411,12.1607719 L16.9892481,12.1607719 C17.2861247,18.2149062 21.7458368,23.0414626 27.1999294,23.0414626 C32.654022,23.0414626 37.1137341,18.2149062 37.4112357,12.1607719 L38.6912428,12.1607719 C38.3878036,18.9208885 33.3574634,24.3215438 27.1999294,24.3215438 Z M27.1999294,1.28008125 C32.1408942,1.28008125 36.1599788,5.87443537 36.1599788,11.5207313 C36.1599788,17.1670272 32.1408942,21.7613813 27.1999294,21.7613813 C22.2589646,21.7613813 18.23988,17.1670272 18.23988,11.5207313 C18.23988,5.87443537 22.2589646,1.28008125 27.1999294,1.28008125 Z" id="Shape" fill="url(#linearGradient-1)"></path>
            <path d="M12.8000847,34.1182414 C12.9714779,34.2626406 13.1408982,34.3973924 13.3058347,34.5225519 C14.0032071,35.0517427 14.8873067,35.6119773 15.9110781,36.0193293 C16.19389,36.1318583 16.4769722,36.2285872 16.7568213,36.3119889 C16.635278,36.5984928 16.4976378,36.8924357 16.3420019,37.1875368 C15.3337228,39.0993348 13.9390056,40.36038 13.8587432,40.4322421 C13.5574422,40.7021474 13.1784737,40.837037 12.79985,40.837037 C12.4211682,40.837037 12.0425151,40.702203 11.7413111,40.4323846 C11.6608899,40.3603802 10.2657761,39.0993239 9.25750273,37.1875368 C9.10174468,36.8922039 8.96401571,36.598023 8.84268248,36.3115357 C9.12261385,36.2285102 9.40566805,36.1318171 9.68847392,36.0193104 C10.7124499,35.6119493 11.5963802,35.0516904 12.2939489,34.5224885 C12.4589743,34.397294 12.6284836,34.2625234 12.8000847,34.1182414 Z M23.7333698,29.170806 L24.3509971,29.6295975 C25.2441581,30.2930633 25.8305979,30.9047559 25.9852982,31.0714615 C26.2822293,31.4021492 26.4180909,31.7772175 26.4305462,32.1389613 C26.4443105,32.5387267 26.3083572,32.929004 26.0309886,33.2389094 L26.0161182,33.2552819 C25.7474455,33.5483272 22.6795053,36.7797482 18.8242973,36.7797482 C16.868547,36.7797482 15.112505,35.9649566 13.8203327,35.1014487 C13.2080809,34.6923049 12.5660925,34.18276 11.9807378,33.5677332 C12.839053,33.623951 13.6130726,33.6086085 14.2335225,33.5700767 C15.076359,33.517734 16.1951096,33.3878651 17.4024538,33.0816342 C19.6249033,32.5178404 21.4544074,31.5440709 22.8295011,30.1690798 C22.9649309,30.033642 23.0963689,29.8926038 23.224274,29.7476721 L23.224274,29.7476721 L23.7333698,29.170806 Z M1.86603342,29.1707861 L2.3751854,29.7476209 C2.50316451,29.8926126 2.63430962,30.0333619 2.77019868,30.1690796 C4.14532444,31.544285 5.97500607,32.5180393 8.19732234,33.0817993 C9.40454159,33.3878595 10.5233199,33.5177327 11.3661775,33.5700767 C11.9867972,33.6086191 12.7610668,33.6239594 13.6194848,33.5678392 C13.0337158,34.1829018 12.3916585,34.6923467 11.7793137,35.1014845 C10.4869451,35.9649797 8.73114205,36.7797482 6.77520735,36.7797482 C2.82381888,36.7797482 -0.300650215,33.3849322 -0.431546686,33.2388166 C-0.701179578,32.9375541 -0.836036921,32.5589195 -0.836036921,32.1802653 C-0.836036921,31.8016112 -0.701179578,31.4229766 -0.429739119,31.119701 C-0.387562216,31.0728819 0.23262443,30.3843816 1.24844072,29.6296471 L1.24844072,29.6296471 L1.86603342,29.1707861 Z M12.79985,13.5638771 C13.1784737,13.5638771 13.5574422,13.6987667 13.8588187,13.9687396 C14.055445,14.1449203 18.6439458,18.3552741 18.6439458,23.6655647 C18.6439458,28.1265952 15.4060451,31.8112363 14.2532929,32.9804924 L14.1033735,33.1302298 C13.9687884,33.2624801 13.8819303,33.3417061 13.8583184,33.3628377 C13.5567251,33.6326347 13.1782179,33.7674476 12.79985,33.7674476 C12.4212202,33.7674476 12.0425151,33.6324183 11.7414439,33.3627187 C11.717848,33.3416014 11.6310011,33.2623849 11.4964234,33.1301406 L11.3465101,32.9804082 C10.1937926,31.811179 6.95575411,28.1264159 6.95575411,23.6655647 C6.95575411,18.355054 11.5445644,14.1446312 11.7411521,13.968672 C12.0425151,13.6987111 12.4211682,13.5638771 12.79985,13.5638771 Z M0.671360661,18.5541415 C2.2246128,18.5422095 4.66447053,18.6614867 7.11117449,19.6142808 C7.36534259,19.7132588 7.61337321,19.8188128 7.85478346,19.9297275 C7.76494354,20.162085 7.68224151,20.3998276 7.60675127,20.6427045 C7.29091063,21.6588678 7.13001514,22.6725533 7.13001514,23.6655647 C7.13001514,24.8895247 7.37460464,26.1448991 7.85175376,27.3973525 C8.23350685,28.3995355 8.76491472,29.4028258 9.42903312,30.3807765 C9.94034358,31.1338003 10.4576831,31.7635065 10.8850785,32.2407178 C11.2829705,32.6849869 11.8036713,33.2212522 12.4320954,33.7699014 C11.6087628,33.7765235 10.83542,33.7174219 10.1541429,33.6292689 C7.94164662,33.3429859 4.86812286,32.5132548 2.64696805,30.2921802 C-0.478039427,27.1669915 -0.827416999,22.3360975 -0.837023345,20.6545762 C-0.802791891,19.4072297 -0.559246753,19.2125695 -0.363253617,19.016565 C-0.0955329854,18.7488288 0.267556165,18.5764615 0.671360661,18.5541415 Z M24.4147578,18.5427087 C25.0345018,18.5649541 25.4361145,18.700207 25.7096258,18.8672792 C26.1979215,19.1655505 26.3996514,19.5865494 26.4253305,20.0511786 C26.4278137,22.3630591 26.0683142,27.1764173 22.9527041,30.292208 C20.7317603,32.5130716 17.6581949,33.3430068 15.4456751,33.6290836 C14.7641208,33.717208 13.9904214,33.7762036 13.1668945,33.7693635 C13.7959253,33.2207662 14.3169573,32.6845816 14.7149252,32.2404014 C15.1422901,31.7634107 15.6595884,31.1337463 16.1708886,30.3807376 C16.8349798,29.4028269 17.3661938,28.3995337 17.7479968,27.3972197 C18.2253011,26.1448335 18.4696848,24.8894903 18.4696848,23.6655647 C18.4696848,22.6725103 18.3087774,21.6587818 17.9931038,20.6425751 C17.9176342,20.3996257 17.8349559,20.1618052 17.7451969,19.9293547 C17.9864846,19.8188443 18.2345313,19.7132671 18.4887208,19.6142808 C20.9428404,18.6585989 23.3906429,18.5427087 24.4147578,18.5427087 Z M18.7907331,14.9496432 C19.1724212,14.8157242 19.5739451,14.8360359 19.923786,14.9809921 C20.2736623,15.125963 20.5718727,15.3955888 20.7454925,15.7574181 C20.7718484,15.8117933 21.1898548,16.6865551 21.576332,18.0247735 C21.6697196,18.3481382 21.7471227,18.6495901 21.810752,18.9216485 C21.5120204,18.9663396 21.2217832,19.0187514 20.941764,19.0766922 C20.186565,19.2329557 19.3791059,19.4556259 18.5674872,19.7707497 C18.3073669,19.8717456 18.0539704,19.9794615 17.8079099,20.0920032 C17.7111395,19.8311856 17.6079689,19.5763443 17.4985264,19.3279119 C17.1771812,18.5984643 16.7785719,17.8716221 16.308585,17.1571711 C16.1448469,16.9082645 15.9762976,16.6667178 15.8032445,16.432873 C16.040685,16.2855508 16.3085953,16.1270521 16.6033973,15.9643345 C17.8200307,15.2928067 18.7317582,14.9705188 18.7907331,14.9496432 Z M5.67617897,14.9807847 C6.02607902,14.8358779 6.42763234,14.8156417 6.81029404,14.9501101 C6.86726951,14.9702081 7.77941205,15.2925503 8.99635548,15.9643636 C9.29115824,16.1271094 9.55907542,16.285647 9.79636443,16.4331134 C9.62332541,16.6668496 9.45480545,16.9083368 9.29111496,17.1571711 C8.82110006,17.8716647 8.42247454,18.598739 8.10111044,19.3278599 C7.99162225,19.5762701 7.88835994,19.8311395 7.7913668,20.0918171 C7.54542127,19.9791423 7.29216775,19.8714861 7.03221278,19.7705544 C6.22064607,19.4554508 5.41305454,19.2327923 4.65808869,19.0767238 C4.37801774,19.0188267 4.08766449,18.9664711 3.78879651,18.9217098 C3.85256645,18.6496565 3.92996528,18.3481903 4.02336797,18.0247735 C4.40922516,16.6887017 4.8264355,15.8151741 4.85285789,15.7600202 C5.02793567,15.3953743 5.32621684,15.1257172 5.67617897,14.9807847 Z" id="Combined-Shape" stroke="#E9EEF8" stroke-width="1.67407401" fill="url(#linearGradient-2)"></path>
        </g>
    </g>
</svg>