<?xml version="1.0" encoding="UTF-8"?>
<svg width="48px" height="48px" viewBox="0 0 48 48" version="1.1" xmlns="http://www.w3.org/2000/svg" xmlns:xlink="http://www.w3.org/1999/xlink">
    <title>ic_cab</title>
    <defs>
        <linearGradient x1="30.7118455%" y1="26.6668765%" x2="61.4929693%" y2="89.4830709%" id="linearGradient-1">
            <stop stop-color="#24ADFB" offset="0%"></stop>
            <stop stop-color="#0066FE" offset="100%"></stop>
        </linearGradient>
        <linearGradient x1="23.3189408%" y1="44.3240329%" x2="94.0289209%" y2="78.3844838%" id="linearGradient-2">
            <stop stop-color="#FFCA6D" offset="0%"></stop>
            <stop stop-color="#F6A923" offset="100%"></stop>
        </linearGradient>
        <linearGradient x1="23.3189408%" y1="42.115908%" x2="94.0289209%" y2="89.426917%" id="linearGradient-3">
            <stop stop-color="#FFCA6D" offset="0%"></stop>
            <stop stop-color="#F6A923" offset="100%"></stop>
        </linearGradient>
    </defs>
    <g id="icons" stroke="none" stroke-width="1" fill="none" fill-rule="evenodd">
        <g id="Group-4" transform="translate(4.000000, 4.000000)" fill-rule="nonzero">
            <path d="M35.9831787,3.97120685 C41.3389404,9.26614931 41.3389404,17.8509472 35.9831787,23.1458897 L26.2857143,32.7332311 L25.9520141,32.4036709 C26.1291407,32.2214278 26.2477892,31.9830878 26.2780739,31.7182352 L26.2857143,31.5837365 L26.2857143,27.8935405 C26.2857143,26.1178924 25.2975321,24.5707188 23.835866,23.7615273 L23.6425711,23.6602076 L22.4023216,19.1466562 C23.5063451,19.8979919 24.8440758,20.3378224 26.2857143,20.3378224 C30.0728097,20.3378224 33.1428571,17.302638 33.1428571,13.5585483 C33.1428571,9.81445856 30.0728097,6.77927414 26.2857143,6.77927414 C22.4986189,6.77927414 19.4285714,9.81445856 19.4285714,13.5585483 C19.4285714,14.148618 19.5048248,14.72108 19.6481209,15.2668282 C19.467989,15.2211904 19.2810628,15.1928086 19.0903687,15.1816403 L18.9059457,15.1762502 L15.4106019,15.1762502 C15.0944475,14.2362966 14.198607,13.5585483 13.1428571,13.5585483 C12.9459543,13.5585483 12.7546138,13.5821232 12.5715589,13.6265772 C12.5537208,10.1346928 13.8926023,6.63624303 16.5882499,3.97120685 C21.9440116,-1.32373562 30.627417,-1.32373562 35.9831787,3.97120685 Z M21.7142857,27.1170966 C22.3454683,27.1170966 22.8571429,27.6229606 22.8571429,28.2469756 C22.8571429,28.550713 22.7359156,28.8264578 22.5386862,29.0294983 L20.9227747,27.4319369 C21.1281474,27.2369472 21.4070595,27.1170966 21.7142857,27.1170966 Z" id="Combined-Shape" fill="url(#linearGradient-1)"></path>
            <path d="M22.1183873,24.1267264 C23.5845199,24.8521472 24.591133,26.3508864 24.591133,28.0820628 L24.591133,31.5299294 C24.591133,32.1402512 24.0906864,32.6350148 23.4733542,32.6350148 L1.11777877,32.6350148 C0.500446603,32.6350148 0,32.1402512 0,31.5299294 L0,28.0820628 C0,26.3596094 0.996494494,24.8672568 2.45061818,24.1377509 L4.2158172,18.3137815 C4.59651483,17.0577353 5.74551688,16.1998973 7.04718757,16.1998973 L10.1740182,16.1998973 C10.4697909,15.321669 11.3078785,14.6884273 12.2955665,14.6884273 C13.2832545,14.6884273 14.1213422,15.321669 14.4171148,16.1998973 L17.6871217,16.1998973 C19.0173882,16.1998973 20.1843473,17.0951325 20.5401078,18.388572 L22.1183873,24.1267264 L22.1183873,24.1267264 Z M4.47111509,29.2700297 C5.08844726,29.2700297 5.58889386,28.7678446 5.58889386,28.148368 C5.58889386,27.5288913 5.08844726,27.0267062 4.47111509,27.0267062 C3.85378292,27.0267062 3.35333632,27.5288913 3.35333632,28.148368 C3.35333632,28.7678446 3.85378292,29.2700297 4.47111509,29.2700297 Z M20.1200179,29.2700297 C20.7373501,29.2700297 21.2377967,28.7678446 21.2377967,28.148368 C21.2377967,27.5288913 20.7373501,27.0267062 20.1200179,27.0267062 C19.5026857,27.0267062 19.0022391,27.5288913 19.0022391,28.148368 C19.0022391,28.7678446 19.5026857,29.2700297 20.1200179,29.2700297 Z M9.73399015,28.0300317 L14.8571429,28.0300317 C15.216264,28.0300317 15.5073892,27.7362658 15.5073892,27.3738872 C15.5073892,27.0115087 15.216264,26.7177428 14.8571429,26.7177428 L9.73399015,26.7177428 C9.37486903,26.7177428 9.08374384,27.0115087 9.08374384,27.3738872 C9.08374384,27.7362658 9.37486903,28.0300317 9.73399015,28.0300317 Z M8.68459437,30.0480192 L15.8570082,30.0480192 C16.2161293,30.0480192 16.5072545,29.7542533 16.5072545,29.3918747 C16.5072545,29.0294961 16.2161293,28.7357302 15.8570082,28.7357302 L8.68459437,28.7357302 C8.32547325,28.7357302 8.03434806,29.0294961 8.03434806,29.3918747 C8.03434806,29.7542533 8.32547325,30.0480192 8.68459437,30.0480192 Z M19.1423936,18.7800193 C18.9609246,18.1202523 18.3656737,17.6636042 17.6871217,17.6636042 L7.04718757,17.6636042 C6.38322193,17.6636042 5.79713063,18.1011765 5.60294161,18.7418696 L4.33359258,22.9298676 L20.2838094,22.9298676 L19.1423936,18.7800193 Z" id="Shape" fill="url(#linearGradient-2)"></path>
            <path d="M2.23555755,32.6350148 L6.14778325,32.6350148 L6.14778325,34.8822212 C6.14778325,35.4995534 5.64733665,36 5.03000448,36 L3.35333632,36 C2.73600415,36 2.23555755,35.4995534 2.23555755,34.8822212 L2.23555755,32.6350148 L2.23555755,32.6350148 Z" id="Rectangle-15" fill="url(#linearGradient-3)"></path>
            <path d="M18.4433498,32.6350148 L22.3555755,32.6350148 L22.3555755,34.8822212 C22.3555755,35.4995534 21.8551289,36 21.2377967,36 L19.5611285,36 C18.9437964,36 18.4433498,35.4995534 18.4433498,34.8822212 L18.4433498,32.6350148 L18.4433498,32.6350148 Z" id="Rectangle-15-Copy" fill="url(#linearGradient-3)"></path>
        </g>
    </g>
</svg>