<?xml version="1.0" encoding="UTF-8"?>
<svg width="48px" height="48px" viewBox="0 0 48 48" version="1.1" xmlns="http://www.w3.org/2000/svg" xmlns:xlink="http://www.w3.org/1999/xlink">
    <title>ic_general</title>
    <defs>
        <linearGradient x1="22.9206799%" y1="26.6668765%" x2="66.1353849%" y2="89.4830709%" id="linearGradient-1">
            <stop stop-color="#24ADFB" offset="0%"></stop>
            <stop stop-color="#0066FE" offset="100%"></stop>
        </linearGradient>
        <linearGradient x1="36.4469768%" y1="26.6668765%" x2="58.075655%" y2="89.4830709%" id="linearGradient-2">
            <stop stop-color="#24ADFB" offset="0%"></stop>
            <stop stop-color="#0066FE" offset="100%"></stop>
        </linearGradient>
        <linearGradient x1="23.4173104%" y1="39.3430438%" x2="93.8665921%" y2="103.293509%" id="linearGradient-3">
            <stop stop-color="#FFCA6D" offset="0%"></stop>
            <stop stop-color="#F6A923" offset="100%"></stop>
        </linearGradient>
    </defs>
    <g id="icons" stroke="none" stroke-width="1" fill="none" fill-rule="evenodd">
        <g id="Group-17" transform="translate(6.000000, 4.000000)" fill-rule="nonzero">
            <path d="M35.3381513,14.7093576 L38.7191015,17.8371422 C39.0753688,18.1667322 39.0969951,18.7227295 38.767405,19.0789969 C38.7651106,19.081477 38.762802,19.0839438 38.7604791,19.0863973 L34.0443689,24.0677291 C33.7106296,24.4200397 33.154495,24.4352927 32.8019465,24.1018049 L29.4720112,20.9501405 C29.1202291,20.6171913 29.1041764,20.0623735 29.4361196,19.7096419 L30.5733986,18.5000238 L30.0062604,17.9880394 L32.6119508,15.2941176 L33.1313986,15.7820238 L34.1014067,14.7521845 C34.4320184,14.4008677 34.9840293,14.3817522 35.3381513,14.7093576 Z M32.5244524,16.0140065 L30.7303866,17.9343688 L30.9183986,18.1340238 L32.7383986,16.2000238 L32.5244524,16.0140065 Z" id="Combined-Shape" fill="url(#linearGradient-1)"></path>
            <path d="M16.5434926,-1.13686838e-13 C18.8064044,-1.13686838e-13 20.6408567,2.1068953 20.6408567,4.70588235 C20.6408567,6.36144204 19.8964884,7.81732496 18.7711688,8.65614126 C18.8482908,8.62682321 18.9181871,8.60346155 18.9750872,8.58540941 C19.4047428,8.22978175 20.100168,7.71677255 20.2156399,7.68007276 L23.6303217,3.29606098 L25.8280633,2.35294118 L24.2533036,5.15945145 L21.0150565,7.48415476 L28.0097583,4.67711141 L29.916775,5.12209631 L29.0018097,6.60581623 L22.5536329,8.22978175 C24.2142886,8.4172128 25.9403888,8.98933625 27.495641,9.90977999 C29.8739843,11.3178066 31.5047495,13.3248261 32.0887163,15.5618747 C32.0984701,15.6002129 32.3740018,16.4638996 31.6049227,17.2668692 C30.8358437,18.0698387 30.3925937,17.9164824 30.0945523,17.8056637 C29.7965109,17.694845 29.0084171,17.15766 28.8325349,16.4833015 C28.4911534,15.1758716 27.3962156,13.8930175 25.8280633,12.9653648 C25.488255,12.7641714 25.1371198,12.5862429 24.7800064,12.4305965 L27.1114688,20.030729 C27.2530556,20.4940638 27.2788559,20.949862 27.2209626,21.3869827 L28.8595937,25.9403775 L33.9648985,26.2048126 C35.0645559,26.262156 35.9118742,27.2356834 35.8571273,28.381241 C35.8039536,29.4927202 34.9229691,30.3545098 33.8676756,30.3545098 C33.8343241,30.3545098 33.8009725,30.3538545 33.7673063,30.3518884 L27.3540542,30.019952 C26.559595,29.9789924 25.8651905,29.4501223 25.5857926,28.6745116 L24.1532489,24.6932402 C23.9811423,24.7417363 23.8068333,24.7804022 23.6303217,24.8085824 L21.0150565,28.7384085 L23.2540155,37.3818635 C23.5409647,38.4890829 22.9110609,39.628087 21.8479014,39.9272558 C21.673907,39.9764073 21.4999126,40 21.3274913,40 C20.4487093,40 19.6435525,39.3898661 19.4047428,38.4638518 L16.9244569,28.8894675 C16.7715432,28.2989941 16.8766321,27.6685443 17.2107769,27.1662159 L19.8184908,23.2468754 C19.6964115,23.0391284 19.5925812,22.8110654 19.5151805,22.5584267 L17.3551954,15.5163276 C16.7180549,15.944601 15.9836914,16.2844017 15.1706686,16.5160691 C14.4042121,16.7339741 13.6204506,16.8398137 12.855882,16.8398137 C11.1300964,16.8398137 9.49744342,16.3011132 8.3594003,15.2961289 C7.64832,14.6679728 7.56148011,13.559115 8.16401054,12.8188934 C8.76654097,12.0793272 9.83095896,11.9885607 10.5420393,12.6157338 C11.3352399,13.3176173 12.873187,13.526675 14.2818182,13.1262541 C15.4242663,12.8011988 16.2612015,12.139292 16.5223505,11.3561448 C16.545319,11.2853666 16.5745802,11.2178652 16.606044,11.1529852 C16.8687042,10.2921387 17.2455893,9.65336565 17.8694263,9.15767549 C17.4549863,9.32288335 17.008277,9.41176471 16.5434926,9.41176471 C14.2805809,9.41176471 12.4461285,7.30486941 12.4461285,4.70588235 C12.4461285,2.1068953 14.2805809,-1.13686838e-13 16.5434926,-1.13686838e-13 Z" id="Combined-Shape" fill="url(#linearGradient-2)"></path>
            <path d="M10.5360791,18.8888889 C16.3549949,18.8888889 21.0721582,23.6147721 21.0721582,29.4444444 C21.0721582,35.2741168 16.3549949,40 10.5360791,40 C10.350014,40 10.1650754,39.995168 9.98138156,39.9856224 L9.98154864,40 L0,40 L0,30 L0.0143536591,30.0002167 C0.00482396436,29.816167 0,29.6308701 0,29.4444444 C0,23.6147721 4.7171633,18.8888889 10.5360791,18.8888889 Z M10.8865424,28.0844444 L10.0170386,28.0844444 C9.83071635,28.0844444 9.67544781,28.2555556 9.67544781,28.4266667 L9.67544781,28.4266667 L9.67544781,34.9288889 C9.67544781,35.1155556 9.83071635,35.2711111 10.0170386,35.2711111 L10.0170386,35.2711111 L10.8865424,35.2711111 C11.0573378,35.2711111 11.2281332,35.1155556 11.2281332,34.9288889 L11.2281332,34.9288889 L11.2281332,28.4266667 C11.2281332,28.2555556 11.0573378,28.0844444 10.8865424,28.0844444 L10.8865424,28.0844444 Z M10.4517905,24.4444444 C9.87729691,24.4444444 9.42701816,24.9111111 9.42701816,25.5022222 C9.42701816,26.0777778 9.87729691,26.5444444 10.4517905,26.5444444 C11.0418109,26.5444444 11.5076165,26.0777778 11.5076165,25.5022222 C11.5076165,24.9111111 11.0418109,24.4444444 10.4517905,24.4444444 Z" id="Combined-Shape" fill="url(#linearGradient-3)"></path>
        </g>
    </g>
</svg>