<?xml version="1.0" encoding="UTF-8"?>
<svg width="48px" height="48px" viewBox="0 0 48 48" version="1.1" xmlns="http://www.w3.org/2000/svg" xmlns:xlink="http://www.w3.org/1999/xlink">
    <title>ic_hotels</title>
    <defs>
        <linearGradient x1="42.5382103%" y1="26.6668765%" x2="54.4461548%" y2="89.4830709%" id="linearGradient-1">
            <stop stop-color="#24ADFB" offset="0%"></stop>
            <stop stop-color="#0066FE" offset="100%"></stop>
        </linearGradient>
        <linearGradient x1="26.7263912%" y1="39.3430438%" x2="88.4059671%" y2="103.293509%" id="linearGradient-2">
            <stop stop-color="#FFCA6D" offset="0%"></stop>
            <stop stop-color="#F6A923" offset="100%"></stop>
        </linearGradient>
    </defs>
    <g id="icons" stroke="none" stroke-width="1" fill="none" fill-rule="evenodd">
        <g id="Group-14" transform="translate(6.000000, 4.000000)" fill-rule="nonzero">
            <rect id="Rectangle-path" fill="#C8DEFF" x="16.9911433" y="4.25069024" width="18.3956678" height="4.8579317"></rect>
            <rect id="Rectangle-path" fill="#C8DEFF" x="16.9911433" y="28.5403487" width="6.13188927" height="8.50138048"></rect>
            <rect id="Rectangle-path" fill="#C8DEFF" x="16.9911433" y="28.5403487" width="4.29232249" height="8.50138048"></rect>
            <rect id="Rectangle-path" fill="#C8DEFF" x="23.1230325" y="28.5403487" width="6.13188927" height="8.50138048"></rect>
            <rect id="Rectangle-path" fill="#C8DEFF" x="29.2549218" y="28.5403487" width="6.13188927" height="8.50138048"></rect>
            <rect id="Rectangle-path" fill="#C8DEFF" x="16.9911433" y="9.10862194" width="18.3956678" height="2.42896585"></rect>
            <rect id="Rectangle-path" fill="#C8DEFF" x="16.9911433" y="17.6100024" width="18.3956678" height="2.42896585"></rect>
            <rect id="Rectangle-path" fill="#C8DEFF" x="16.9911433" y="26.1113829" width="18.3956678" height="2.42896585"></rect>
            <rect id="Rectangle-path" fill="#C8DEFF" x="16.9911433" y="11.5375878" width="6.13188927" height="6.07241463"></rect>
            <rect id="Rectangle-path" fill="#C8DEFF" x="23.1230325" y="11.5375878" width="6.13188927" height="6.07241463"></rect>
            <rect id="Rectangle-path" fill="#C8DEFF" x="29.2549218" y="11.5375878" width="6.13188927" height="6.07241463"></rect>
            <rect id="Rectangle-path" fill="#C8DEFF" x="29.2549218" y="20.0389683" width="6.13188927" height="6.07241463"></rect>
            <rect id="Rectangle-path" fill="#C8DEFF" x="23.1230325" y="20.0389683" width="6.13188927" height="6.07241463"></rect>
            <rect id="Rectangle-path" fill="#C8DEFF" x="16.9911433" y="20.0389683" width="6.13188927" height="6.07241463"></rect>
            <rect id="Rectangle-path" fill="#C8DEFF" x="16.9911433" y="20.0389683" width="4.29232249" height="6.07241463"></rect>
            <rect id="Rectangle-path" fill="#C8DEFF" x="20.6702768" y="0.607241463" width="11.0374007" height="4.8579317"></rect>
            <path d="M31.7076775,0 C32.046771,0 32.3208664,0.272044175 32.3208664,0.607241463 L32.3199543,3.643 L35.3868111,3.64344878 C35.7259045,3.64344878 36,3.91549295 36,4.25069024 L36,37.0417292 C36,37.3769265 35.7259045,37.6489707 35.3868111,37.6489707 L16.9911433,37.6489707 C16.6520498,37.6489707 16.3779543,37.3769265 16.3779543,37.0417292 L16.3779543,4.25069024 C16.3779543,3.91549295 16.6520498,3.64344878 16.9911433,3.64344878 L20.0569543,3.643 L20.0570879,0.607241463 C20.0570879,0.272044175 20.3311833,0 20.6702768,0 L31.7076775,0 Z M28.6409543,29.1474488 L17.6039543,29.1474488 L17.6043322,36.4344878 L28.6409543,36.4344488 L28.6409543,29.1474488 Z M34.7729543,29.1474488 L29.8679543,29.1474488 L29.8679543,36.4344488 L34.7736221,36.4344878 L34.7729543,29.1474488 Z M28.6409543,20.6454488 L17.6039543,20.6454488 L17.6039543,27.9324488 L28.6409543,27.9324488 L28.6409543,20.6454488 Z M34.7729543,20.6454488 L29.8679543,20.6454488 L29.8679543,27.9324488 L34.7729543,27.9324488 L34.7729543,20.6454488 Z M22.5089543,12.1444488 L17.6039543,12.1444488 L17.6039543,19.4314488 L22.5089543,19.4314488 L22.5089543,12.1444488 Z M28.6409543,12.1444488 L23.7359543,12.1444488 L23.7359543,19.4314488 L28.6409543,19.4314488 L28.6409543,12.1444488 Z M34.7729543,12.1444488 L29.8679543,12.1444488 L29.8679543,19.4314488 L34.7729543,19.4314488 L34.7729543,12.1444488 Z M34.7729543,8.93144878 L17.6039543,8.93144878 L17.6039543,10.9294488 L34.7729543,10.9294488 L34.7729543,8.93144878 Z M32.3208664,5.46517316 C32.3208664,5.80037045 32.046771,6.07241463 31.7076775,6.07241463 L20.6702768,6.07241463 C20.3311833,6.07241463 20.0570879,5.80037045 20.0570879,5.46517316 L20.0569543,4.857 L17.6043322,4.8579317 L17.6039543,7.71644878 L34.7729543,7.71644878 L34.7736221,4.8579317 L32.3199543,4.857 L32.3208664,5.46517316 Z M31.0944886,1.21448293 L21.2834657,1.21448293 L21.2834657,4.8579317 L31.0944886,4.8579317 L31.0944886,1.21448293 Z" id="Combined-Shape" fill="url(#linearGradient-1)"></path>
            <rect id="Rectangle-path" fill="#000000" x="22.5098436" y="20.0389683" width="1.22637785" height="6.07241463"></rect>
            <rect id="Rectangle-path" fill="#000000" x="22.5098436" y="28.5403487" width="1.22637785" height="8.50138048"></rect>
            <rect id="Rectangle-path" fill="#23ADFB" x="22.5098436" y="2.42896585" width="7.35826713" height="1.21448293" rx="0.607241463"></rect>
            <path d="M24.0138918,24.0015834 L24.4585887,24.0015834 C24.7041831,24.0015834 24.9032855,23.802615 24.9032855,23.5571858 L24.9032855,21.335198 C24.9032855,21.0897689 24.7041831,20.8908004 24.4585887,20.8908004 L24.0138918,20.8908004 L24.0138918,19.1132102 C24.0138918,18.867781 23.8147894,18.6688126 23.5691949,18.6688126 L22.6798012,18.6688126 L22.6798012,13.7803352 C22.6798012,13.5349061 22.4806987,13.3359376 22.2351043,13.3359376 L2.66818124,13.3359376 C2.42258681,13.3359376 2.22348437,13.5349061 2.22348437,13.7803352 L2.22348437,18.6687605 L1.33409062,18.6687605 C1.08849619,18.6687605 0.889393748,18.867729 0.889393748,19.1131581 L0.889393748,20.8907484 L0.444696874,20.8907484 C0.199102445,20.8907484 0,21.0897168 0,21.3351459 L0,23.5571338 C0,23.8025629 0.199102445,24.0015313 0.444696874,24.0015313 L0.889393748,24.0015313 L0.889393748,39.1112049 L0.889393748,40 L24.0138918,40 L24.0138918,39.1112049 L24.0138918,24.0015834 Z" id="Shape" fill="url(#linearGradient-2)"></path>
            <polygon id="Path" fill="#E9EEF8" points="1.7787875 19.5575557 2.66818124 19.5575557 22.2350522 19.5575557 23.1244459 19.5575557 23.1244459 20.8907484 1.7787875 20.8907484"></polygon>
            <polygon id="Path" fill="#E9EEF8" points="1.33409062 23.1127883 0.889393748 23.1127883 0.889393748 21.7795956 1.33409062 21.7795956 23.5691949 21.7795956 24.0138918 21.7795956 24.0138918 23.1127883 23.5691949 23.1127883"></polygon>
            <path d="M11.7685702,15.7451746 C11.697842,15.5645404 11.5984992,15.4085429 11.4703857,15.2772341 C11.3423242,15.1459254 11.1882022,15.0428993 11.008124,14.9682601 C10.8279936,14.8936209 10.6285784,14.8562753 10.4097742,14.8562753 C10.19097,14.8562753 9.99119001,14.8932563 9.81043418,14.9672705 C9.62967834,15.0412846 9.47493092,15.1442586 9.34619191,15.2762445 C9.21745289,15.4082304 9.1177453,15.5645404 9.04701703,15.7452266 C8.97628875,15.9258608 8.94095067,16.1221729 8.94095067,16.3341628 C8.94095067,16.5461527 8.97628875,16.7424648 9.04701703,16.923099 C9.1177453,17.1037331 9.21745289,17.2600432 9.34619191,17.3920811 C9.47493092,17.524067 9.62967834,17.627041 9.81043418,17.7010551 C9.99119001,17.7750693 10.19097,17.8120504 10.4097742,17.8120504 C10.6285784,17.8120504 10.8279936,17.7750693 11.008124,17.7010551 C11.1882544,17.627093 11.3423242,17.524067 11.4703857,17.3920811 C11.5984471,17.2600952 11.697842,17.1037852 11.7685702,16.923099 C11.8392985,16.7424648 11.8746366,16.5461527 11.8746366,16.3341628 C11.8746366,16.1221208 11.8392464,15.9258087 11.7685702,15.7451746 Z M11.2592432,16.7610595 C11.2172337,16.8870555 11.1568254,16.9937275 11.0781226,17.0810236 C10.9994198,17.1683718 10.9036734,17.2353544 10.7909355,17.2820234 C10.6781977,17.3286925 10.5511265,17.352027 10.4097221,17.352027 C10.2683177,17.352027 10.1408817,17.3286925 10.0275184,17.2820234 C9.91410296,17.2353544 9.81773112,17.1683718 9.73835075,17.0810236 C9.65897038,16.9936755 9.59793662,16.8870555 9.55524947,16.7610595 C9.51256232,16.6350635 9.49119269,16.4927646 9.49119269,16.3341107 C9.49119269,16.1754568 9.51256232,16.0331579 9.55524947,15.907162 C9.59793662,15.781166 9.65897038,15.6741814 9.73835075,15.5862082 C9.81773112,15.4982349 9.91410296,15.4308878 10.0275184,15.3842187 C10.1409338,15.3375497 10.2683177,15.3142152 10.4097221,15.3142152 C10.5511265,15.3142152 10.6781977,15.3375497 10.7909355,15.3842187 C10.9036734,15.4308878 10.9993676,15.4982349 11.0781226,15.5862082 C11.1568254,15.6741814 11.2171816,15.781166 11.2592432,15.907162 C11.3012528,16.0331579 11.3222576,16.1754568 11.3222576,16.3341107 C11.3222576,16.4927646 11.3013049,16.6350635 11.2592432,16.7610595 Z" id="Shape" fill="#F5F7FB"></path>
            <polygon id="Shape" fill="#F5F7FB" points="7.97233292 14.888256 7.97233292 16.1321213 6.61556963 16.1321213 6.61556963 14.888256 6.07325002 14.888256 6.07325002 17.7799654 6.61556963 17.7799654 6.61556963 16.5160991 7.97233292 16.5160991 7.97233292 17.7799654 8.51465253 17.7799654 8.51465253 14.888256"></polygon>
            <polygon id="Shape" fill="#F5F7FB" points="17.3538108 17.3359845 17.3538108 14.888256 16.8154524 14.888256 16.8154524 17.7799654 18.5124619 17.7799654 18.5124619 17.3359845"></polygon>
            <polygon id="Shape" fill="#F5F7FB" points="11.8986123 14.888256 11.8986123 15.3302056 12.7731515 15.3302056 12.7731515 17.7799654 13.3114578 17.7799654 13.3114578 15.3302056 14.1819316 15.3302056 14.1819316 14.888256"></polygon>
            <polygon id="Shape" fill="#F5F7FB" points="16.3492295 15.3161944 16.3492295 14.888256 14.5241585 14.888256 14.5241585 17.7799654 16.3492295 17.7799654 16.3492295 17.3499956 15.0664781 17.3499956 15.0664781 16.5320895 16.0770533 16.5320895 16.0770533 16.1181102 15.0664781 16.1181102 15.0664781 15.3161944"></polygon>
            <path d="M6.67050523,25.3348282 L3.55757499,25.3348282 C3.31198056,25.3348282 3.11287812,25.5337966 3.11287812,25.7792258 L3.11287812,30.2232535 C3.11287812,30.4686827 3.31198056,30.6676511 3.55757499,30.6676511 L6.67050523,30.6676511 C6.91609966,30.6676511 7.1152021,30.4686827 7.1152021,30.2232535 L7.1152021,25.7792258 C7.1152021,25.5337966 6.91609966,25.3348282 6.67050523,25.3348282 Z M6.22580836,29.778856 L4.00227186,29.778856 L4.00227186,26.2236233 L6.22580836,26.2236233 L6.22580836,29.778856 Z" id="Shape" fill="#E9EEF8"></path>
            <path d="M14.2304042,25.3348282 L11.117474,25.3348282 C10.8718795,25.3348282 10.6727771,25.5337966 10.6727771,25.7792258 L10.6727771,30.2232535 C10.6727771,30.4686827 10.8718795,30.6676511 11.117474,30.6676511 L14.2304042,30.6676511 C14.4759986,30.6676511 14.6751011,30.4686827 14.6751011,30.2232535 L14.6751011,25.7792258 C14.6751011,25.5337966 14.4759986,25.3348282 14.2304042,25.3348282 Z M13.7857073,29.778856 L11.562223,29.778856 L11.562223,26.2236233 L13.7857073,26.2236233 L13.7857073,29.778856 Z" id="Shape" fill="#E9EEF8"></path>
            <path d="M14.2304042,32.4452414 L11.117474,32.4452414 C10.8718795,32.4452414 10.6727771,32.6442098 10.6727771,32.8896389 L10.6727771,37.3336667 C10.6727771,37.5790958 10.8718795,37.7780643 11.117474,37.7780643 L14.2304042,37.7780643 C14.4759986,37.7780643 14.6751011,37.5790958 14.6751011,37.3336667 L14.6751011,32.8896389 C14.6751011,32.6442619 14.4759986,32.4452414 14.2304042,32.4452414 Z M13.7857073,36.8892691 L11.562223,36.8892691 L11.562223,33.3340365 L13.7857073,33.3340365 L13.7857073,36.8892691 Z" id="Shape" fill="#E9EEF8"></path>
            <path d="M21.3456584,25.3348282 L18.2327282,25.3348282 C17.9871338,25.3348282 17.7880313,25.5337966 17.7880313,25.7792258 L17.7880313,30.2232535 C17.7880313,30.4686827 17.9871338,30.6676511 18.2327282,30.6676511 L21.3456584,30.6676511 C21.5912529,30.6676511 21.7903553,30.4686827 21.7903553,30.2232535 L21.7903553,25.7792258 C21.7903553,25.5337966 21.5912529,25.3348282 21.3456584,25.3348282 Z M20.9009616,29.778856 L18.6774772,29.778856 L18.6774772,26.2236233 L20.9009616,26.2236233 L20.9009616,29.778856 Z" id="Shape" fill="#E9EEF8"></path>
            <path d="M6.67050523,32.4452414 L3.55757499,32.4452414 C3.31198056,32.4452414 3.11287812,32.6442098 3.11287812,32.8896389 L3.11287812,37.3336667 C3.11287812,37.5790958 3.31198056,37.7780643 3.55757499,37.7780643 L6.67050523,37.7780643 C6.91609966,37.7780643 7.1152021,37.5790958 7.1152021,37.3336667 L7.1152021,32.8896389 C7.1152021,32.6442619 6.91609966,32.4452414 6.67050523,32.4452414 Z M6.22580836,36.8892691 L4.00227186,36.8892691 L4.00227186,33.3340365 L6.22580836,33.3340365 L6.22580836,36.8892691 Z" id="Shape" fill="#E9EEF8"></path>
            <path d="M21.3456584,32.4452414 L18.2327282,32.4452414 C17.9871338,32.4452414 17.7880313,32.6442098 17.7880313,32.8896389 L17.7880313,37.3336667 C17.7880313,37.5790958 17.9871338,37.7780643 18.2327282,37.7780643 L21.3456584,37.7780643 C21.5912529,37.7780643 21.7903553,37.5790958 21.7903553,37.3336667 L21.7903553,32.8896389 C21.7903553,32.6442619 21.5912529,32.4452414 21.3456584,32.4452414 Z M20.9009616,36.8892691 L18.6774772,36.8892691 L18.6774772,33.3340365 L20.9009616,33.3340365 L20.9009616,36.8892691 Z" id="Shape" fill="#E9EEF8"></path>
        </g>
    </g>
</svg>