<?xml version="1.0" encoding="UTF-8"?>
<svg width="48px" height="48px" viewBox="0 0 48 48" version="1.1" xmlns="http://www.w3.org/2000/svg" xmlns:xlink="http://www.w3.org/1999/xlink">
    <title>ic_store</title>
    <defs>
        <linearGradient x1="22.5298738%" y1="42.5106125%" x2="66.3682491%" y2="62.6731432%" id="linearGradient-1">
            <stop stop-color="#24ADFB" offset="0%"></stop>
            <stop stop-color="#0066FE" offset="100%"></stop>
        </linearGradient>
        <linearGradient x1="22.5298738%" y1="49.4149805%" x2="66.3682491%" y2="50.9899389%" id="linearGradient-2">
            <stop stop-color="#24ADFB" offset="0%"></stop>
            <stop stop-color="#0066FE" offset="100%"></stop>
        </linearGradient>
        <linearGradient x1="23.3368096%" y1="39.3430438%" x2="93.999434%" y2="103.293509%" id="linearGradient-3">
            <stop stop-color="#FFCA6D" offset="0%"></stop>
            <stop stop-color="#F6A923" offset="100%"></stop>
        </linearGradient>
        <linearGradient x1="23.3189408%" y1="41.5244429%" x2="94.0289209%" y2="92.3847265%" id="linearGradient-4">
            <stop stop-color="#FFCA6D" offset="0%"></stop>
            <stop stop-color="#F6A923" offset="100%"></stop>
        </linearGradient>
        <linearGradient x1="22.5298738%" y1="43.422971%" x2="66.3682491%" y2="61.1292988%" id="linearGradient-5">
            <stop stop-color="#24ADFB" offset="0%"></stop>
            <stop stop-color="#0066FE" offset="100%"></stop>
        </linearGradient>
        <linearGradient x1="22.5298738%" y1="32.0925361%" x2="66.3682491%" y2="80.3020582%" id="linearGradient-6">
            <stop stop-color="#24ADFB" offset="0%"></stop>
            <stop stop-color="#0066FE" offset="100%"></stop>
        </linearGradient>
        <linearGradient x1="23.3189408%" y1="45.0952632%" x2="94.0289209%" y2="74.527701%" id="linearGradient-7">
            <stop stop-color="#FFCA6D" offset="0%"></stop>
            <stop stop-color="#F6A923" offset="100%"></stop>
        </linearGradient>
        <linearGradient x1="24.7323943%" y1="39.3430438%" x2="91.6964486%" y2="103.293509%" id="linearGradient-8">
            <stop stop-color="#FFCA6D" offset="0%"></stop>
            <stop stop-color="#F6A923" offset="100%"></stop>
        </linearGradient>
    </defs>
    <g id="icons" stroke="none" stroke-width="1" fill="none" fill-rule="evenodd">
        <g id="Group-3" transform="translate(4.000000, 5.000000)" fill-rule="nonzero">
            <path d="M30.9034976,4.16012624 C30.5782973,1.78859516 28.5943182,0 26.2888343,0 C24.8061522,0 23.398022,0.744426046 22.5225197,1.99204598 C22.3436917,2.24648489 22.3971955,2.60340149 22.6417384,2.7894662 C22.885478,2.97486223 23.2293163,2.91986196 23.407823,2.66508871 C24.0779863,1.71102641 25.1548107,1.14129724 26.2886736,1.14129724 C28.0518892,1.14129724 29.5687945,2.50844663 29.8175149,4.32111485 C29.8567189,4.60581226 30.0914608,4.81126917 30.3599439,4.81126917 C30.3854908,4.81126917 30.411841,4.80926308 30.4380305,4.80558525 C30.7378447,4.76094978 30.9462364,4.47190585 30.9034976,4.16012624 Z" id="Shape" fill="url(#linearGradient-1)"></path>
            <path d="M38.8244713,10.5480139 L37.179189,7.69485436 C37.080215,7.52283227 36.9017083,7.41784696 36.7089018,7.41784696 L35.1322265,7.41784696 C34.8295203,7.41784696 34.5838526,7.67345608 34.5838526,7.988412 C34.5838526,8.30336791 34.8295203,8.55897703 35.1322265,8.55897703 L36.3984833,8.55897703 L37.3856526,10.2708393 L15.1918553,10.2708393 L16.1790247,8.55897703 L16.7598543,8.55897703 C17.0625605,8.55897703 17.3082282,8.30336791 17.3082282,7.988412 C17.3082282,7.67345608 17.0625605,7.41784696 16.7598543,7.41784696 L15.8686062,7.41784696 C15.6757997,7.41784696 15.497293,7.52283227 15.398319,7.69485436 L13.7530367,10.5480139 C13.6513313,10.7245497 13.6489212,10.9440492 13.7461278,11.1229254 C13.8433344,11.3018017 14.0255366,11.4124709 14.2233239,11.4124709 L38.354184,11.4124709 C38.5519714,11.4124709 38.7340129,11.3018017 38.8313802,11.1229254 C38.9287475,10.9440492 38.9261767,10.7242153 38.8244713,10.5480139 Z" id="Shape" fill="url(#linearGradient-2)"></path>
            <path d="M36.0907962,5.28654499 C36.013995,5.1576538 35.8914022,5.0662096 35.7496894,5.03177174 L28.2734561,3.21241655 C28.1319039,3.17781152 27.9828002,3.20355633 27.8590827,3.28313117 C27.7356865,3.36304037 27.6476382,3.49059417 27.6145398,3.63804168 L27.0507414,6.14565244 C26.9816524,6.45241682 27.1648186,6.75934838 27.4598126,6.83089887 C27.7546459,6.90278371 28.0499612,6.7122053 28.1187288,6.40527374 C28.5488417,9.76954785 29.1271541,11.705912 29.8536661,12.2143661 C30.4249562,12.6141872 31.7933469,12.0402358 33.9588382,10.4925121 C33.8897492,10.7992765 34.0729154,11.106208 34.3679093,11.1777585 C34.4101661,11.1879561 34.4521015,11.1928042 34.4935549,11.1928042 C34.7425967,11.1928042 34.9680196,11.0152654 35.0266649,10.7523006 L36.1585998,5.71735252 C36.1920196,5.57007218 36.1675975,5.41493466 36.0907962,5.28654499 Z" id="Shape" fill="url(#linearGradient-3)"></path>
            <path d="M26.5788475,6.63547241 L26.0791572,2.23795901 C26.062126,2.08766954 25.9883775,1.95041965 25.873979,1.85680218 C25.7595804,1.76318471 25.6151362,1.72038815 25.4700493,1.7381086 L16.2972793,2.86619909 C15.9966619,2.90331173 15.7816826,3.18683892 15.8171911,3.49995592 L16.6502759,10.834383 C16.6833744,11.1247644 16.9200444,11.3382456 17.1943117,11.3382456 C17.215681,11.3382456 17.2376931,11.336741 17.2595445,11.3342334 C17.5600013,11.2971208 17.7749806,11.0135936 17.7396328,10.7004766 C20.4121056,11.1711728 21.971162,11.2934863 22.416802,11.0674173 C23.6933527,10.4198348 24.7175822,8.98704383 25.4894906,6.76904447 C25.5251598,7.08199429 25.7963743,7.30433578 26.0985986,7.26889488 C26.3992161,7.23211659 26.6141953,6.94842223 26.5788475,6.63547241 Z" id="Shape" fill="url(#linearGradient-4)"></path>
            <path d="M30.9161907,10.6249139 L29.8276372,5.91495225 C29.7935748,5.76800626 29.7047231,5.64078681 29.5808449,5.56171348 C29.4569667,5.48330885 29.308345,5.45873427 29.1661502,5.49384082 L20.3312737,7.70455046 C20.0367617,7.77810704 19.8555236,8.08637599 19.9262193,8.39280602 L20.470255,10.746951 C20.5409507,11.0537154 20.8372301,11.2424549 21.1315814,11.1683968 C21.4260933,11.0948402 21.6073315,10.7865713 21.5366357,10.4801412 L29.8494886,10.8920581 C29.9097407,11.1536855 30.1346816,11.3292182 30.3822773,11.3292182 C30.4248554,11.3292182 30.4679155,11.3240358 30.5111363,11.3131695 C30.8056483,11.2394458 30.9868864,10.931344 30.9161907,10.6249139 Z" id="Shape" fill="url(#linearGradient-5)"></path>
            <path d="M38.3545054,10.2713408 C38.6466073,10.2713408 38.8872941,10.5093967 38.9023972,10.8126504 L39.9993056,33.06686 C40.0068572,33.2231677 39.9525501,33.3757976 39.8492379,33.4891416 C39.7451224,33.6024856 39.6013209,33.6666805 39.4510924,33.6666805 L24.1276206,33.6663408 L26.8248654,22.7929084 C29.1437746,22.5154558 30.9504138,20.4604213 30.9504138,17.9745539 L30.9503051,15.8796322 C31.5888296,15.6442014 32.0473222,15.0095686 32.0473222,14.2654632 C32.0473222,13.3214314 31.3093553,12.553601 30.40204,12.553601 C29.4947247,12.553601 28.7567577,13.3214314 28.7567577,14.2654632 C28.7567577,15.0095686 29.2152504,15.6442014 29.8537748,15.8796322 L29.8536661,17.9743867 C29.8536661,19.7201436 28.6883109,21.1882637 27.124423,21.5805814 L27.1430194,21.5033949 C27.1740314,21.3782747 27.1948211,21.2509495 27.2052352,21.1226767 L27.2130554,20.9297138 C27.2130554,19.6676124 26.2325507,18.6345201 24.9917245,18.5506203 L24.8284605,18.5451189 L22.7661698,18.5453549 C22.7384096,18.3591988 22.7240025,18.1685104 22.7240025,17.9743867 L22.7239182,15.8796233 C23.3624299,15.6441852 23.8209109,15.0095591 23.8209109,14.2654632 C23.8209109,13.3214314 23.082944,12.553601 22.1756287,12.553601 C21.2683133,12.553601 20.5303464,13.3214314 20.5303464,14.2654632 C20.5303464,15.0095591 20.9888274,15.6441852 21.6273392,15.8796233 L21.6272548,17.9745539 C21.6272548,18.1675023 21.638139,18.3578551 21.6593022,18.5449826 L13.2946206,18.5443408 L13.6757534,10.8126504 C13.6908566,10.5092295 13.9315434,10.2713408 14.2236453,10.2713408 L38.3545054,10.2713408 Z M30.40204,13.6950654 C30.7044249,13.6950654 30.9504138,13.9510088 30.9504138,14.2656304 C30.9504138,14.3696653 30.9235173,14.4672843 30.876579,14.5513552 C30.781709,14.3800528 30.6046514,14.2654632 30.40204,14.2654632 L30.3597832,14.2654632 C30.172509,14.2654632 30.0070661,14.3632972 29.9081209,14.5124915 C29.8731748,14.4382362 29.8536661,14.3542616 29.8536661,14.2656304 C29.8536661,13.9510088 30.0996551,13.6950654 30.40204,13.6950654 Z M22.1756287,13.6950654 C22.4780135,13.6950654 22.7240025,13.9510088 22.7240025,14.2656304 C22.7240025,14.3696653 22.697106,14.4672843 22.6501677,14.5513552 C22.5552977,14.3801451 22.37824,14.2656304 22.1756287,14.2656304 C21.9730173,14.2656304 21.7959596,14.3801451 21.7010191,14.5503221 C21.6541513,14.4672843 21.6272548,14.3696653 21.6272548,14.2656304 C21.6272548,13.9510088 21.8732438,13.6950654 22.1756287,13.6950654 Z" id="Combined-Shape" fill="url(#linearGradient-6)"></path>
            <path d="M4.09540056,14.1733737 C5.18372841,14.1733737 5.31172348,15.572139 5.36936681,15.81839 L6.37240057,20.1033286 L24.1936224,20.1033162 C24.3200807,20.1033162 24.4460376,20.1196502 24.5685311,20.1519343 C25.375828,20.3647032 25.862419,21.2096853 25.6553626,22.0392548 L23.557306,30.445099 C23.3861233,31.1309407 22.7845967,31.6105333 22.0955657,31.6105333 L7.96589784,31.6105333 C7.26841915,31.6105333 6.66181437,31.1193525 6.49869437,30.4225073 L3.23838312,16.4945283 L0.533268931,16.4945283 C0.238752633,16.4945283 0,16.2491887 0,15.9465469 C0,15.6439052 0.238752633,14.1733737 0.533268931,14.1733737 L4.09540056,14.1733737 Z M18.1835539,27.7268422 L9.57574394,27.7268422 C9.22713281,27.7268422 8.94452765,28.0389409 8.94452765,28.4239341 C8.94452765,28.8089273 9.22713281,29.121026 9.57574394,29.121026 L9.57574394,29.121026 L18.1835539,29.121026 C18.5321651,29.121026 18.8147702,28.8089273 18.8147702,28.4239341 C18.8147702,28.0389409 18.5321651,27.7268422 18.1835539,27.7268422 L18.1835539,27.7268422 Z M14.5592129,24.4159957 L9.57574394,24.4159957 C9.22713281,24.4159957 8.94452765,24.7280944 8.94452765,25.1130876 C8.94452765,25.4980809 9.22713281,25.8101795 9.57574394,25.8101795 L9.57574394,25.8101795 L14.5592129,25.8101795 C14.907824,25.8101795 15.1904292,25.4980809 15.1904292,25.1130876 C15.1904292,24.7280944 14.907824,24.4159957 14.5592129,24.4159957 L14.5592129,24.4159957 Z" id="Combined-Shape" fill="url(#linearGradient-7)"></path>
            <ellipse id="Oval-19" fill="url(#linearGradient-8)" cx="10.3878306" cy="35.4054761" rx="2.52486514" ry="2.59452389"></ellipse>
            <ellipse id="Oval-19-Copy" fill="url(#linearGradient-8)" cx="19.2248586" cy="35.4054761" rx="2.52486514" ry="2.59452389"></ellipse>
        </g>
    </g>
</svg>