<?xml version="1.0" encoding="UTF-8"?>
<svg width="48px" height="48px" viewBox="0 0 48 48" version="1.1" xmlns="http://www.w3.org/2000/svg" xmlns:xlink="http://www.w3.org/1999/xlink">
    <title>ic_tours</title>
    <defs>
        <linearGradient x1="26.0976083%" y1="26.6668765%" x2="64.2423919%" y2="89.4830709%" id="linearGradient-1">
            <stop stop-color="#24ADFB" offset="0%"></stop>
            <stop stop-color="#0066FE" offset="100%"></stop>
        </linearGradient>
        <linearGradient x1="23.3189408%" y1="43.0273217%" x2="94.0289209%" y2="84.869102%" id="linearGradient-2">
            <stop stop-color="#FFCA6D" offset="0%"></stop>
            <stop stop-color="#F6A923" offset="100%"></stop>
        </linearGradient>
        <linearGradient x1="48.8950175%" y1="39.3430438%" x2="51.8234353%" y2="103.293509%" id="linearGradient-3">
            <stop stop-color="#FFCA6D" offset="0%"></stop>
            <stop stop-color="#F6A923" offset="100%"></stop>
        </linearGradient>
    </defs>
    <g id="icons" stroke="none" stroke-width="1" fill="none" fill-rule="evenodd">
        <g id="Group-6" transform="translate(4.000000, 4.000000)">
            <path d="M39.9994597,18.696 L40,33.8804918 C40,34.4561987 39.5728086,34.9300443 39.0248723,34.990665 L38.9057209,34.9972168 L10.127985,34.9972168 C9.5641321,34.9972168 9.09935055,34.5618616 9.03988569,34.002207 L9.03345865,33.8804918 L9.03245967,18.696 L39.9994597,18.696 Z M25.3758846,22.9348473 C24.7495247,22.9348473 24.2417597,23.4426123 24.2417597,24.0689722 L24.2417597,24.0689722 L24.2417597,27.4904794 C24.2417597,27.7073449 24.3039375,27.9196638 24.4209231,28.10227 C24.7588057,28.6296806 25.4602645,28.7833235 25.9876752,28.4454409 L25.9876752,28.4454409 L28.6580397,26.7346873 C28.7958517,26.6463988 28.9129221,26.5293284 29.0012106,26.3915164 C29.3390932,25.8641057 29.1854503,25.1626469 28.6580397,24.8247643 L28.6580397,24.8247643 L25.9876752,23.1140106 C25.805069,22.997025 25.5927501,22.9348473 25.3758846,22.9348473 Z M37.0866736,0.649998393 L37.130546,0.763344271 L38.4477109,4.78925596 L13.3539574,13.3385789 C13.5940616,13.7045676 13.7648684,14.1214348 13.8480055,14.5696394 L13.8821832,14.7962627 L39.0364957,14.7962627 C39.5306152,14.7962627 39.9378609,15.1682141 39.9935178,15.647402 L40,15.759767 L39.9994597,17.711 L8.71528407,17.7111192 L8.71480177,17.9025249 C7.89139492,17.2947942 7.35445967,16.306966 7.35445967,15.1931018 C7.35445967,14.3008396 7.69910769,13.489618 8.25928226,12.8896048 L8.40374132,12.744077 L7.75782984,10.770351 C7.57910912,10.2243124 7.83727153,9.6367382 8.33833822,9.40216584 L8.44935688,9.3574472 L35.7458849,0.0577123006 C36.2806625,-0.124418282 36.8565762,0.138476089 37.0866736,0.649998393 Z M10.6301271,13.4903263 C9.71015136,13.4903263 8.96151215,14.2542354 8.96151215,15.193228 C8.96151215,16.1322205 9.71015136,16.8961296 10.6301271,16.8961296 C11.5503501,16.8961296 12.2989893,16.1322205 12.2989893,15.193228 C12.2989893,14.2542354 11.5503501,13.4903263 10.6301271,13.4903263 Z M16.7826657,7.83202578 L13.4601465,8.96388772 L12.6606997,12.2613359 L15.9832189,11.1293479 L16.7826657,7.83202578 Z M24.9905008,5.03560906 L21.6679816,6.167471 L20.868782,9.46479308 L24.191054,8.332805 L24.9905008,5.03560906 Z M33.1984595,2.23919233 L29.8761875,3.37105427 L29.0767407,6.66837635 L32.3990127,5.53651441 L33.1984595,2.23919233 Z" id="Combined-Shape" fill="url(#linearGradient-1)" fill-rule="nonzero"></path>
            <line x1="3.84401629" y1="32.7518602" x2="8.9573088" y2="32.7518602" id="Line-15" stroke="#0066FE" stroke-width="0.994585095" stroke-linecap="round" stroke-linejoin="round"></line>
            <line x1="3.84588872" y1="35.535281" x2="13.2919755" y2="35.535281" id="Line-15-Copy" stroke="#0066FE" stroke-width="0.994585095" stroke-linecap="round" stroke-linejoin="round"></line>
            <path d="M19.8206601,20.1861074 C21.0369544,20.1861074 22.0229557,21.1721088 22.0229557,22.388403 L22.0229557,35.7977044 C22.0229557,37.0139987 21.0369544,38 19.8206601,38 L2.20229557,38 C0.986001311,38 5.93042297e-16,37.0139987 0,35.7977044 L0,22.388403 C-1.48953087e-16,21.1721088 0.986001311,20.1861074 2.20229557,20.1861074 L19.8206601,20.1861074 Z M21.996315,25.7805147 L0.047361195,25.7805147 L0.047361195,26.7975977 L21.996315,26.7975977 L21.996315,25.7805147 Z" id="Combined-Shape" fill="url(#linearGradient-2)" fill-rule="nonzero"></path>
            <path d="M4.04653325,18.3869962 C4.99309568,18.0433674 5.11259957,18.2271034 5.2428051,18.341822 C5.40363393,18.4835215 5.51329257,18.6845532 5.5383709,18.9119252 L5.5383709,18.9119252 L5.54379482,22.9076881 C5.54379482,23.1515272 5.4465268,23.3719202 5.29038806,23.5315909 C5.13122295,23.6943564 4.91112727,23.7942712 4.66846065,23.7942712 C4.44910891,23.7942712 4.24828687,23.7125984 4.0941162,23.5767652 C3.93328737,23.4350656 3.82362873,23.234034 3.7985504,23.006662 L3.7985504,23.006662 L3.79312648,19.0108991 C3.79312648,18.76706 3.89039451,18.5466669 4.04653325,18.3869962 Z" id="Line-14" stroke="#E9EEF8" stroke-width="0.756083244" fill="url(#linearGradient-3)" fill-rule="nonzero"></path>
            <path d="M17.1182231,18.3869962 C18.0647855,18.0433674 18.1842894,18.2271034 18.3144949,18.341822 C18.4753238,18.4835215 18.5849824,18.6845532 18.6100607,18.9119252 L18.6100607,18.9119252 L18.6154846,22.9076881 C18.6154846,23.1515272 18.5182166,23.3719202 18.3620779,23.5315909 C18.2029128,23.6943564 17.9828171,23.7942712 17.7401505,23.7942712 C17.5207987,23.7942712 17.3199767,23.7125984 17.165806,23.5767652 C17.0049772,23.4350656 16.8953186,23.234034 16.8702402,23.006662 L16.8702402,23.006662 L16.8648163,19.0108991 C16.8648163,18.76706 16.9620843,18.5466669 17.1182231,18.3869962 Z" id="Line-14-Copy" stroke="#E9EEF8" stroke-width="0.756083244" fill="url(#linearGradient-3)" fill-rule="nonzero"></path>
            <line x1="3.69129731" y1="34.1650511" x2="15.8039229" y2="34.1650511" id="Line" stroke="#FFFFFF" stroke-width="1.10114778" stroke-linecap="round" stroke-linejoin="round" fill-rule="nonzero"></line>
            <line x1="3.69129731" y1="31.2424593" x2="10.0228971" y2="31.2424593" id="Line-Copy" stroke="#FFFFFF" stroke-width="1.10114778" stroke-linecap="round" stroke-linejoin="round" fill-rule="nonzero"></line>
        </g>
    </g>
</svg>