<?xml version="1.0" encoding="UTF-8"?>
<svg width="48px" height="48px" viewBox="0 0 48 48" version="1.1" xmlns="http://www.w3.org/2000/svg" xmlns:xlink="http://www.w3.org/1999/xlink">
    <title>ic_trains</title>
    <defs>
        <linearGradient x1="32.6454437%" y1="26.6668765%" x2="60.3408226%" y2="89.4830709%" id="linearGradient-1">
            <stop stop-color="#24ADFB" offset="0%"></stop>
            <stop stop-color="#0066FE" offset="100%"></stop>
        </linearGradient>
        <linearGradient x1="30.9021326%" y1="39.3430438%" x2="81.5151842%" y2="103.293509%" id="linearGradient-2">
            <stop stop-color="#FFCA6D" offset="0%"></stop>
            <stop stop-color="#F6A923" offset="100%"></stop>
        </linearGradient>
    </defs>
    <g id="icons" stroke="none" stroke-width="1" fill="none" fill-rule="evenodd">
        <g id="Group-16" transform="translate(4.000000, 4.000000)" fill-rule="nonzero">
            <path d="M28.6585773,0.0970000328 C28.969053,0.235232715 29.2206561,0.47739376 29.3717423,0.779636883 L29.4302181,0.912720313 L39.8735,28.2868198 C40.0183441,28.6664778 39.996229,29.0682009 39.8428626,29.4126675 C39.7087949,29.7137884 39.4744618,29.9705696 39.1646665,30.127892 L39.0273492,30.1890659 L34.7923765,31.8246952 L34.7790567,31.8282081 L34.7790567,31.8282081 L34.7657368,31.831721 L34.7397782,31.8433782 C34.6990108,31.8574919 34.6576817,31.8623057 34.6167412,31.8724077 C34.5707413,31.8841917 34.5245183,31.8982372 34.4779836,31.9050615 C34.428394,31.9117061 34.3790353,31.9125514 34.329892,31.9146731 C34.2836228,31.9165005 34.2373113,31.9210633 34.1908689,31.9188789 C34.1415179,31.9161865 34.0934904,31.9070008 34.0452398,31.9000766 C34.0001903,31.8930038 33.9550637,31.8878639 33.9108221,31.8772161 C33.8636718,31.8660602 33.8195918,31.8480085 33.7739805,31.8316356 C33.7309854,31.8164277 33.6874055,31.8025333 33.6461649,31.7833849 C33.6036162,31.763654 33.5636991,31.7380123 33.5229048,31.7143409 C33.4822567,31.6903412 33.4421857,31.6685657 33.4039461,31.6409168 C33.3658526,31.6129392 33.3322068,31.580253 33.2963757,31.5489547 C33.260837,31.5169995 33.2247827,31.4879627 33.1923065,31.4526495 C33.1588839,31.4177018 33.1311477,31.377023 33.1022074,31.3381689 C33.0734479,31.2997888 33.0436649,31.2637074 33.0186566,31.2230627 C32.9927441,31.1800482 32.9724413,31.1332357 32.9507187,31.0869715 C32.9336284,31.051426 32.9120212,31.0189847 32.8975549,30.9810663 C32.8939729,30.972389 32.893265,30.9634175 32.8901563,30.9545575 C32.8865743,30.9458802 32.8812802,30.938408 32.8779907,30.9290741 C32.6879661,30.3683713 32.2617478,29.9051452 31.7080831,29.6586378 C30.6000998,29.1653319 29.2957201,29.6693806 28.8005323,30.7815908 C28.5803838,31.2760523 28.5488032,31.8295986 28.7064985,32.3281373 L28.7745079,32.512288 L28.7829222,32.5400359 L28.7948723,32.564243 C28.8094848,32.601833 28.8145289,32.6406714 28.8257941,32.6787385 C28.8400911,32.7275986 28.8561349,32.7760561 28.8656303,32.8251393 C28.8749796,32.8745508 28.8769457,32.923823 28.8805468,32.9738231 C28.8841211,33.0194831 28.8904231,33.0651771 28.8893421,33.1107317 C28.8885379,33.1627053 28.8809007,33.2124234 28.8749333,33.2636719 C28.8692738,33.307188 28.8669614,33.3502271 28.8577045,33.3921416 C28.8470817,33.4432848 28.8307186,33.4914787 28.8146825,33.5398181 C28.8018628,33.5809334 28.7906783,33.6227766 28.7739343,33.6621446 C28.7698407,33.6713391 28.7685095,33.6813701 28.7644158,33.6905646 C28.7478949,33.7276711 28.7241447,33.760772 28.7044997,33.7960941 C28.6832465,33.8350283 28.6642478,33.8741794 28.6396897,33.9108553 C28.6124652,33.9526395 28.5792503,33.9893958 28.5477052,34.0276825 C28.5192227,34.0626111 28.4917559,34.0987789 28.4596413,34.1313034 C28.4247566,34.1665294 28.3851551,34.1965075 28.3468961,34.2278703 C28.3112959,34.2576625 28.2765651,34.2890222 28.2364979,34.3156453 C28.1962845,34.3425967 28.1517928,34.3633151 28.1085323,34.386549 L28.0547606,34.4179892 L28.0547606,34.4179892 L27.9996846,34.447078 L27.971987,34.4556001 L27.9492294,34.4671086 L23.7137834,36.1029207 C23.3503396,36.2432898 22.9464131,36.2334291 22.5912567,36.0753033 C22.280781,35.9370706 22.0291779,35.6949095 21.8774576,35.3929113 L21.8186694,35.2599485 L11.3752413,7.88617738 C11.1029339,7.17241915 11.4227302,6.3761817 12.0924352,6.04144469 L12.2220462,5.98422251 L16.4571651,4.34826479 C16.4660103,4.34512054 16.4744516,4.34376375 16.4830045,4.34127622 C16.4921768,4.33827748 16.5007372,4.33225213 16.5099096,4.32925351 C16.550677,4.31513977 16.5921522,4.30999755 16.6329466,4.30022401 C16.6789465,4.28844001 16.7251695,4.27439448 16.7717042,4.26757014 C16.82144,4.26059722 16.8706525,4.26008028 16.919942,4.2576302 C16.9662112,4.25580283 17.0123765,4.25156834 17.058965,4.25342434 C17.108316,4.25611682 17.1561974,4.26563084 17.204448,4.27255502 C17.2494975,4.27962792 17.2947703,4.28443932 17.3388657,4.29541556 C17.386016,4.3065714 17.430096,4.32462321 17.4757073,4.34099602 C17.5188486,4.35587557 17.5624284,4.36977001 17.603669,4.38891842 C17.6462178,4.40864925 17.6859887,4.43461933 17.726783,4.45829064 C17.7675773,4.48196206 17.8075021,4.50406593 17.8458879,4.53138656 L17.9003936,4.57640953 L17.9003936,4.57640953 L18.00655,4.67044711 L18.0573813,4.71998219 C18.0908039,4.75492987 18.11854,4.7956086 18.1476266,4.83413431 C18.1762399,4.87284283 18.2061691,4.9085959 18.2310312,4.94956893 C18.2569436,4.99258345 18.2772465,5.039396 18.2991153,5.08533183 C18.3160594,5.12120564 18.3378128,5.15331862 18.3522791,5.19123702 L18.356101,5.20454599 L18.356101,5.20454599 L18.3596777,5.21774582 L18.3716971,5.24355761 C18.5617217,5.80426034 18.9880862,6.26715811 19.5420778,6.51381107 C20.6497342,7.00697145 21.9542946,6.50339659 22.4496287,5.39085808 C22.6696472,4.89668835 22.700955,4.34305958 22.5435088,3.84380703 L22.4756185,3.65935855 L22.4672042,3.63161063 L22.4551079,3.60773192 C22.4413302,3.57090709 22.435813,3.53225148 22.4252364,3.49527789 C22.410397,3.44499577 22.3938453,3.39591874 22.3847884,3.34585044 C22.3753623,3.29837193 22.3744119,3.25033898 22.3702605,3.20245475 C22.3657822,3.15442483 22.359557,3.1067977 22.360569,3.05963843 C22.3611499,3.00992641 22.3685639,2.96246976 22.3743082,2.91348271 C22.3792444,2.86807065 22.3825801,2.82273288 22.3923526,2.7779002 C22.4023136,2.73000356 22.4184883,2.68487353 22.4333201,2.63835874 C22.4473094,2.59461651 22.4587171,2.55051175 22.4766307,2.50851681 C22.4954215,2.46455157 22.5191871,2.42437505 22.5419024,2.3821571 C22.5644714,2.34026746 22.5846397,2.29848937 22.6110216,2.25947768 C22.6370764,2.22032047 22.6676673,2.18593715 22.6976811,2.14932949 C22.7279874,2.11206513 22.7569854,2.07421832 22.7906313,2.04001462 C22.8239846,2.00646781 22.8623474,1.97751197 22.8993674,1.94717142 C22.9366452,1.91537185 22.9723224,1.88364658 23.0134823,1.85632953 C23.0535494,1.82970652 23.0972409,1.80902533 23.1403552,1.78611978 C23.1773521,1.76639265 23.2103208,1.7425112 23.2500032,1.72555359 C23.25896,1.72127856 23.2688903,1.72097818 23.277847,1.71670315 L23.2889387,1.71126372 L23.2889387,1.71126372 L23.3006046,1.7051946 L27.5360505,0.0693825972 C27.8994944,-0.0709865275 28.3034209,-0.0611258075 28.6585773,0.0970000328 Z M28.4918979,16.8898989 C27.9340166,17.1136401 27.6491582,17.7508231 27.8556078,18.3131785 L29.7044117,23.3540845 C29.9105126,23.9165797 30.5297704,24.1911622 31.0874128,23.9673151 C31.3667021,23.8553047 31.5771398,23.6406265 31.6923807,23.3828543 C31.8075094,23.1253266 31.8270017,22.8256877 31.7237029,22.5440356 L29.874899,17.5031296 C29.6686882,16.9408801 29.0494304,16.6662976 28.4918979,16.8898989 Z M19.9518327,12.1376451 C19.3939515,12.3613863 19.109093,12.9985692 19.3155426,13.5609246 L21.1643466,18.6018306 C21.3704475,19.1643259 21.9897052,19.4389083 22.5473476,19.2150613 C22.8266369,19.1030509 23.0370747,18.8883727 23.1523156,18.6306004 C23.2674442,18.3730728 23.2869366,18.0734339 23.1836377,17.7917817 L21.3348338,12.7508757 C21.128623,12.1886262 20.5093653,11.9140438 19.9518327,12.1376451 Z" id="Combined-Shape" fill="url(#linearGradient-1)"></path>
            <path d="M17.1186492,37.2420263 L18.9201493,39.0349638 L18.9201493,40.769464 L1.823491,40.769464 L1.823491,39.0352381 L3.62307695,37.2420263 L17.1186492,37.2420263 Z M10.6690879,14.7120327 C13.8352586,14.724998 16.6634077,14.9751885 18.5915752,15.9190516 C19.4966446,16.3620949 20.2165116,16.9539054 20.7180244,17.720927 C21.1459992,18.3754785 21.4188307,19.1613107 21.4927812,20.1095221 L21.5089561,20.398888 L21.5131043,32.9023653 C21.5131043,34.0768035 21.109312,35.1764932 20.4318745,36.0656697 C19.7730008,36.9304801 18.8554903,37.5944554 17.8061214,37.93487 L17.5411054,38.0131618 L3.20256854,38.0131711 C2.08427334,37.7147757 1.09832931,37.0521724 0.389346104,36.1650827 C-0.232936796,35.3864736 -0.641509657,34.4362256 -0.744094267,33.4109157 L-0.764416073,33.1294973 L-0.769464034,20.6428145 C-0.769464034,19.5250971 -0.514478844,18.6143938 -0.066607184,17.8680946 C0.417239825,17.0618487 1.13094281,16.4407312 2.03914701,15.9755918 C3.88280048,15.0313595 6.58707368,14.7504958 9.63935158,14.7154114 L10.0777033,14.7120263 L10.6690879,14.7120327 Z M4.53767132,31.7361108 C4.2238886,31.7361108 3.9335616,31.879346 3.71920009,32.0927157 C3.50616333,32.3047668 3.36241907,32.5917432 3.36241907,32.9023653 C3.36241907,33.2129874 3.50616333,33.4999638 3.71920009,33.7120149 C3.9335616,33.9253846 4.2238886,34.0686198 4.53767132,34.0686198 C4.85145404,34.0686198 5.14178103,33.9253846 5.35614255,33.7120149 C5.5691793,33.4999638 5.71292356,33.2129874 5.71292356,32.9023653 C5.71292356,32.5917432 5.5691793,32.3047668 5.35614255,32.0927157 C5.14178103,31.879346 4.85145404,31.7361108 4.53767132,31.7361108 Z M16.205969,31.7361108 C15.8921863,31.7361108 15.6018593,31.879346 15.3874978,32.0927157 C15.174461,32.3047668 15.0307167,32.5917432 15.0307167,32.9023653 C15.0307167,33.2129874 15.174461,33.4999638 15.3874978,33.7120149 C15.6018593,33.9253846 15.8921863,34.0686198 16.205969,34.0686198 C16.5197517,34.0686198 16.8100787,33.9253846 17.0244402,33.7120149 C17.237477,33.4999638 17.3812212,33.2129874 17.3812212,32.9023653 C17.3812212,32.5917432 17.237477,32.3047668 17.0244402,32.0927157 C16.8100787,31.879346 16.5197517,31.7361108 16.205969,31.7361108 Z M8.3058786,21.4122785 L3.36241907,21.4624368 L3.41257732,26.3257456 L8.3058786,26.2755874 L8.3058786,21.4122785 Z M17.3812212,21.4122785 L12.4377617,21.4624368 L12.48792,26.3257456 L17.3812212,26.2755874 L17.3812212,21.4122785 Z" id="Combined-Shape" stroke="#E9EEF8" stroke-width="1.53892807" fill="url(#linearGradient-2)"></path>
        </g>
    </g>
</svg>